<svg role="img" xmlns="http://www.w3.org/2000/svg" viewBox="0 0 32 32" aria-labelledby="ico-title"><title id="ico-title" lang="en-US">Kankakee Community College</title><defs><style>.st0{fill:none;}.st1{fill:#b5bac2;}.st2{fill:#c51f49;}.st3{fill:#0f3b63;}</style></defs><rect class="st0" width="32" height="32"/><path class="st1" d="M28.735,19.53s-5.653,5.654-12.366,2.6c-7.418-3.375-13.867-1.454-13.867-1.454,0,0,6.647-2.665,13.59-.337,6.877,2.306,12.643-.809,12.643-.809"/><path class="st3" d="M27.31,18.023c.904-.695,1.103-1.583,1.312-2.563l.058-.272h-.345c-.209.977-.434,1.857-1.395,2.541-.953.668-1.939.681-2.973.681h-.122c-1.439,0-2.649-.04-3.291-.701.204.398.535.648.963.806-1.05-.056-2.153-.195-3.294-.444.958-.702,1.163-1.608,1.376-2.611l.058-.272h-.345c-.209.977-.434,1.857-1.395,2.541-.105.073-.21.139-.315.197-.518-.13-1.044-.283-1.576-.462-1.925-.648-3.783-.83-5.508-.724h0s-1.574-2.949-1.574-2.949l4.034-4.379h-.612l-3.895,4.188,1.696,3.165h0c-1.93.165-3.684.683-5.165,1.302h0s.638-3.003.638-3.003h.663l-.186-.372h-.744l-.752,3.538h0c-.079.035-.157.07-.234.106h-1.922l-.079.372h1.232c-2.151,1.097-3.452,2.238-3.452,2.238,0,0,7.244-4.127,16.217-.986,8.828,3.089,15.447-3.526,15.447-3.526,0,0-1.727.964-4.522,1.589Z"/><polygon class="st3" points="6.842 9.412 6.497 9.412 5.834 12.535 6.179 12.535 6.842 9.412"/><path class="st3" d="M20.24,12.387c.253-1.298.142-2.049-.306-2.48.215.454.232,1.123.041,2.107l-.076.36h-2.21s0,.008-.001.013l-.076.36h2.553l.076-.36Z"/><path class="st3" d="M13.996,16.071c-.076-.307.007-.753.137-1.365l.308-1.45c.282-1.327.51-1.76,1.923-1.76.443,0,.81.017,1.046.154-.105-.483-.614-.526-1.312-.526-1.412,0-1.641.434-1.923,1.76l-.308,1.45c-.199.933-.287,1.48.129,1.738Z"/><path class="st3" d="M29.263,12.387c.088-.451.132-.836.133-1.165v-.026c-.002-.602-.151-1.011-.439-1.289.114.24.172.541.173.916v.027c-.001.328-.045.713-.133,1.165l-.077.36h-2.209s0,.008-.001.013l-.076.36h2.552l.077-.36Z"/><path class="st3" d="M23.019,16.071c-.076-.307.007-.753.137-1.365l.308-1.45c.282-1.327.51-1.76,1.923-1.76.443,0,.81.017,1.046.154-.105-.484-.615-.526-1.312-.526-1.413,0-1.641.434-1.923,1.76l-.309,1.45c-.198.933-.286,1.48.13,1.738Z"/><polygon class="st2" points="12.711 9.04 9.712 9.04 6.577 12.535 6.179 12.535 5.834 12.535 6.497 9.412 6.576 9.04 4.098 9.04 2.122 18.335 2.467 18.335 4.388 18.335 4.601 18.335 4.623 18.23 5.375 14.691 6.118 14.691 6.304 15.064 7.394 17.251 7.935 18.335 8.015 18.335 11.008 18.335 10.167 16.765 8.47 13.601 12.365 9.412 12.711 9.04"/><path class="st2" d="M19.934,9.907c-.394-.833-1.452-.942-3.104-.942-2.727,0-4.47.447-5.124,3.521l-.51,2.405c-.162.761-.196,1.357-.123,1.825.067.431.226.753.459.993.642.661,1.852.701,3.291.701h.122c.921,0,1.802-.011,2.657-.484.106-.058.211-.124.316-.197.961-.683,1.187-1.564,1.395-2.541.007-.033.014-.067.021-.1l.058-.272h-2.553l-.057.272c-.232,1.091-.744,1.166-1.773,1.166-.487,0-.809-.057-1.012-.183-.416-.258-.327-.804-.129-1.738l.308-1.45c.282-1.327.51-1.76,1.923-1.76.697,0,1.207.043,1.312.526.022.101.026.222.011.366l-.076.36h2.553l.076-.36c.192-.984.174-1.653-.041-2.107Z"/><path class="st2" d="M28.957,9.907c-.394-.833-1.452-.942-3.105-.942-2.727,0-4.47.447-5.123,3.521l-.512,2.405c-.311,1.462-.15,2.318.336,2.818.642.661,1.852.701,3.291.701h.122c1.033,0,2.02-.014,2.973-.681.961-.683,1.186-1.564,1.395-2.541.007-.033.014-.067.021-.1l.058-.272h-2.553l-.058.272c-.232,1.091-.744,1.166-1.772,1.166-.487,0-.809-.057-1.012-.183-.416-.258-.327-.804-.13-1.738l.309-1.45c.282-1.327.51-1.76,1.923-1.76.697,0,1.207.043,1.312.526.022.101.026.222.011.366l-.077.36h2.553l.077-.36c.088-.451.132-.836.133-1.165v-.027c-.001-.375-.06-.676-.173-.916Z"/></svg>
