<?xml version="1.0" encoding="utf-8"?>
<!-- Generator: Adobe Illustrator 25.2.3, SVG Export Plug-In . SVG Version: 6.00 Build 0)  -->
<svg version="1.1" id="Layer_1" xmlns="http://www.w3.org/2000/svg" xmlns:xlink="http://www.w3.org/1999/xlink" x="0px" y="0px"
	 viewBox="0 0 100 100" enable-background="new 0 0 100 100" xml:space="preserve">
<g>
	<path fill="#0F3C64" d="M39.5,8.8l33.4,9.9l0.4,56.1L60.2,88.4V27.2v-1.4l-1.3-0.5l-32-11.4L39.5,8.8 M39.4,6.6L21.3,14l37,13.2
		v66.2l17.1-17.8l-0.4-58.4L39.4,6.6L39.4,6.6z"/>
</g>
<g display="none">
	<polygon display="inline" fill="#FFFFFF" points="59.2,27.7 73.9,19 74.3,75.2 59.2,90.9 	"/>
	<path display="inline" fill="#0F3C64" d="M72.9,20.7l0.4,54.1L60.2,88.4V28.3L72.9,20.7 M74.9,17.2l-16.7,10v66.2l17.1-17.8
		L74.9,17.2L74.9,17.2z"/>
</g>
<g>
	<path fill="#0F3C64" d="M21.3,14v56.4l37,22.9V27.2L21.3,14z M53.2,51.6c0,0.3-0.1,0.6-0.3,0.8c-0.2,0.2-0.5,0.3-0.8,0.3
		c-0.2,0-0.3,0-0.5-0.1l-26-12.5c-0.4-0.2-0.7-0.6-0.7-1V23.3c0-0.6,0.5-1.2,1.1-1.2c0.1,0,0.3,0,0.4,0.1l26,9.9
		c0.4,0.2,0.7,0.6,0.7,1.1V51.6z"/>
</g>
<g display="none">
	<polygon display="inline" fill="#FFFFFF" points="24.1,13.9 39.5,7.7 72.4,17.5 58.1,26.1 	"/>
	<path display="inline" fill="#0F3C64" d="M39.5,8.8L70,17.8L58,25L26.9,13.9L39.5,8.8 M39.4,6.6L21.3,14l37,13.2l16.7-10L39.4,6.6
		L39.4,6.6z"/>
</g>
<path fill="none" stroke="#0F3C64" stroke-width="1.8569" stroke-linecap="round" stroke-miterlimit="10" d="M68.4,61.1l1.1,0.4
	c0.8,0.3,1.6-0.2,1.6-0.9v-6c0-0.4-0.3-0.8-0.7-0.9l-1.1-0.4c-0.8-0.3-1.6,0.2-1.6,0.9v6C67.8,60.6,68,60.9,68.4,61.1z"/>
<g>
	<path fill="#0F3C64" d="M66.5,32.1c0.5,0,1.5,1.4,1.5,3.7s-1,3.7-1.5,3.7c-0.5,0-1.5-1.4-1.5-3.7S66,32.1,66.5,32.1 M66.5,30.8
		c-1.5,0-2.8,2.2-2.8,5c0,2.8,1.2,5,2.8,5s2.8-2.2,2.8-5C69.3,33.1,68.1,30.8,66.5,30.8L66.5,30.8z"/>
</g>
<g>
	<path fill="#0F3C64" d="M67,32.1c0.5,0,1.5,1.4,1.5,3.7s-1,3.7-1.5,3.7s-1.5-1.4-1.5-3.7S66.5,32.1,67,32.1 M67,30.8
		c-1.5,0-2.8,2.2-2.8,5c0,2.8,1.2,5,2.8,5c1.5,0,2.8-2.2,2.8-5C69.8,33.1,68.6,30.8,67,30.8L67,30.8z"/>
</g>
<path fill="none" stroke="#0F3C64" stroke-width="3" stroke-linecap="round" stroke-miterlimit="10" d="M68.2,35.9
	c8.7,0,10.6,6.6,10.6,12.3s0,15.1,0,19.4s-7.6,4.2-7.6-0.3s0-11.8,0-15.1s-4.6-4.6-4.6-4.6"/>
<line fill="#FFFFFF" stroke="#0F3C64" stroke-width="2" stroke-miterlimit="10" x1="58.2" y1="27.2" x2="73.7" y2="18"/>
<rect fill="none" width="100" height="100"/>
</svg>
