<?xml version="1.0" encoding="utf-8"?>
<!-- Generator: Adobe Illustrator 25.2.3, SVG Export Plug-In . SVG Version: 6.00 Build 0)  -->
<svg version="1.1" id="Layer_1" xmlns="http://www.w3.org/2000/svg" xmlns:xlink="http://www.w3.org/1999/xlink" x="0px" y="0px"
	 viewBox="0 0 100 100" enable-background="new 0 0 100 100" xml:space="preserve">
<path fill="#0F3C64" d="M78.9,31.7L78.9,31.7L64.6,17.3l-4.1,4.1l8.1,8.1c-3.6,1.4-6.2,4.8-6.2,9c0,5.3,4.3,9.6,9.6,9.6
	c1.4,0,2.7-0.3,3.8-0.8V75c0,2.1-1.7,3.8-3.8,3.8s-3.8-1.7-3.8-3.8V57.7c0-4.2-3.5-7.7-7.7-7.7h-3.8V23.1c0-4.2-3.5-7.7-7.7-7.7H26
	c-4.2,0-7.7,3.5-7.7,7.7v61.5h38.4V55.8h5.8V75c0,5.3,4.3,9.6,9.6,9.6s9.6-4.3,9.6-9.6V38.5C81.7,35.8,80.6,33.4,78.9,31.7z
	 M49,55.8v21.1H26V50H49V55.8z M49,42.3H26V23.1H49V42.3z M72.1,42.3c-2.1,0-3.8-1.7-3.8-3.8s1.7-3.8,3.8-3.8s3.8,1.7,3.8,3.8
	S74.2,42.3,72.1,42.3z"/>
<rect fill="none" width="100" height="100"/>
</svg>
