<?xml version="1.0" encoding="utf-8"?>
<!-- Generator: Adobe Illustrator 25.2.3, SVG Export Plug-In . SVG Version: 6.00 Build 0)  -->
<svg version="1.1" id="Layer_1" xmlns="http://www.w3.org/2000/svg" xmlns:xlink="http://www.w3.org/1999/xlink" x="0px" y="0px"
	 viewBox="0 0 150 150" style="enable-background:new 0 0 150 150;" xml:space="preserve">
<style type="text/css">
	.st0{fill:#003057;}
	.st1{fill:none;}
</style>
<g>
	<g>
		<path class="st0" d="M78.5,49.2c0,9.2-7.5,16.7-16.7,16.7S45,58.4,45,49.2c0-9.2,7.5-16.7,16.7-16.7S78.5,39.9,78.5,49.2
			L78.5,49.2z"/>
	</g>
	<g>
		<path class="st0" d="M142.1,126.5c-11-11.1-22-22.1-33.1-33.2c-0.7-0.7-0.9-1.1-0.3-2.1c5.7-9.1,8.6-18.9,8.7-29.7
			c-0.2-2.6-0.4-5.2-0.7-7.8c-0.2-1.5-0.5-3-0.8-4.5C109.2,19.3,79.1,0.5,49,7.5c-29.7,7-48.1,36.2-41.7,65.9
			C12.5,97.2,32.6,115,56.7,117c12.5,1,24-1.7,34.6-8.3c0.9-0.5,1.3-0.5,2.1,0.2c11.1,11.1,22.2,22.2,33.3,33.3
			c2.2,2.2,4.6,2.2,6.9,0c2.9-2.9,5.8-5.7,8.6-8.6C144.5,131.2,144.5,129,142.1,126.5z M89.6,87v-0.3c0-9.3-5-15.1-11.4-18.3
			c-4.3,3.9-10.1,6.1-16.4,6.1c-6.3,0-11.9-2.3-16.3-6.1c-6.4,3.4-11.4,9-11.4,18.3v0.7C27.8,80.7,24,71.7,24,61.7
			c0-21,16.7-37.8,37.6-37.7c21,0,37.8,16.9,37.7,37.8C99.3,71.5,95.6,80.3,89.6,87z"/>
	</g>
</g>
<rect class="st1" width="150" height="150"/>
</svg>
