<?xml version="1.0" encoding="utf-8"?>
<!-- Generator: Adobe Illustrator 25.2.3, SVG Export Plug-In . SVG Version: 6.00 Build 0)  -->
<svg version="1.1" id="Layer_1" xmlns="http://www.w3.org/2000/svg" xmlns:xlink="http://www.w3.org/1999/xlink" x="0px" y="0px"
	 viewBox="0 0 1920 1080" enable-background="new 0 0 1920 1080" xml:space="preserve">
<rect fill="#FFFFFF" width="1920" height="1080"/>
<path fill="#1C1C1B" d="M1233.7,601.3c-195.8,0-391.5,0-587.3-0.1c-3.4,0-9.9,2-9.8-1.9c0.2-4.8,6.6-2.4,10.1-2.4
	c392.4-0.1,784.8-0.1,1177.2-0.1c1.2,0,2.3-0.1,3.5,0c1.9,0.1,4.7-0.6,4.5,2.5c-0.2,3.2-3.1,1.9-4.9,2c-4.1,0.2-8.2,0.1-12.3,0.1
	C1621.1,601.3,1427.4,601.3,1233.7,601.3z"/>
<g>
	<g>
		<path fill="#154A8D" d="M347.5,643.6c-0.6-0.2-1.1-0.5-1.7-0.7c-11.1-4.4-35-18.7-36.6-19.9c-45.1-33.8-69.1-78.8-69.1-135.1
			c0-58.3,34.5-101.2,39.2-107.6c-10.3,2.4-99.8,88.5-104.4,85.8c-4.2,5.3-6.9,11.5-9.6,17.5c-9.4,20.4-12.8,41.3-1.9,62.2
			c8.8,16.8,21.4,30.4,37.7,40.4c8.7,4.6,41.7,23.5,43,24.1c18.9,8.2,39.9,16.7,59.6,23.1c8.9,3.7,18,3,25.9,7.1
			c6.8-1,12.8,7.3,20,4C349.3,644.2,348,643.8,347.5,643.6z"/>
		<g>
			<path fill="#AD3F3D" d="M595.5,622.7c-0.3-17.7,0.6-35.4-2.3-52.9c2.7-1.5,5.6-1.9,5.6,2.1C598.9,588.8,599.9,605.9,595.5,622.7z
				"/>
			<path fill="#C32030" d="M581.5,414.9c-0.6-3.2-1.3-6.3-2-9.4c-9.3-38.1-19.7-75.8-39.7-110c-9.7-16.6-20.9-31.9-39-40.3
				c-19.7-9.2-39.7-6.5-59.1,0.1c-57.4,19.6-105.3,55.3-152.4,92.1c-23.3,17.3-44.5,37-64.9,57.5c-18.6,18.7-35.9,38.4-49.4,61.2
				c9.5,3.8,96.9-80.4,104.4-85.8c8.9-7.1,17.6-14.5,26.6-21.4c43.1-33,91.4-43.9,144-30.4c51.2,13.1,88,44.5,110.4,92.6
				c1.4,2.9,1.3,7,5.8,8C580.3,432.5,584.3,428.9,581.5,414.9z"/>
			<path fill="#5A3C63" d="M263.1,402.6c0.4-0.5,0.7-0.9,1.1-1.4C263.9,401.7,263.5,402.2,263.1,402.6z"/>
		</g>
		<circle fill="#C32030" cx="513.5" cy="202.3" r="45.4"/>
		<circle fill="#154A8D" cx="104.7" cy="540" r="45.4"/>
		<circle fill="#F27E20" cx="601.1" cy="728.3" r="45.4"/>
		<path fill="#F27E20" d="M593.2,569.7c-9.9-0.2-19.9,0.3-29.8-0.7c-6.3-0.6-9.4,1.5-12.4,6.8c-11.6,20.3-27.4,36.9-46.4,50.5
			c-31.7,22.8-66.8,33.7-106.1,31.5c-16.6-4.5-33.1-6.8-49.1-13.5c-0.4,0-1.2-0.3-1.7-0.3c-19.8-6.4-38.3-12.5-42.6-14
			c-21.2-7.5-57.3-22-67.1-26c-17.4-7.3-29.7-15.3-34.8-17.6c-1.1-0.3-1.9-0.3-2.1-0.1c0.1,0.2,0.4,0.4,0.7,0.7
			c14.1,14.1,31.3,23.4,48.9,32.2c21.5,10.9,67,33.9,102.1,47.3c46.5,17.7,93.7,32.7,143.6,36.2c26,1.8,51.9,0.8,72.6-18.3
			c17.7-16.4,22.8-38.8,26.4-61.6C595.2,605,596.1,587.3,593.2,569.7z"/>
	</g>
	<g>
		<g>
			<path fill="#221F1E" d="M349.5,521.5l-32.4-37.7h-0.3v37.7H293v-81.9h23.8v33.3h0.4l31.1-33.3h28l-33.9,37.7l36.2,44.2H349.5z"/>
			<path fill="#221F1E" d="M495.7,522.3v-32.9c0-1.7-0.2-3.3-0.5-4.8s-0.8-2.9-1.5-4.1s-1.7-2.1-2.9-2.8c-1.3-0.7-2.8-1-4.7-1
				c-1.9,0-3.6,0.3-5,1s-2.6,1.6-3.6,2.8c-0.9,1.2-1.7,2.6-2.1,4.2c-0.5,1.6-0.7,3.2-0.7,4.9v32.7h-21.3V462H474v8.4h0.3
				c0.8-1.3,1.8-2.6,3-3.8c1.2-1.3,2.7-2.3,4.4-3.2c1.7-0.9,3.5-1.6,5.5-2.2s4.1-0.8,6.3-0.8c4.3,0,8,0.7,11,2.2s5.5,3.3,7.3,5.6
				c1.9,2.3,3.2,4.9,4,7.9s1.2,6,1.2,9v37.3h-21.3V522.3z"/>
			<path fill="#221F1E" d="M601.5,521.5h-25L551.4,495H551v26.4h-20.3v-83.6H551l0.8,47.6h0.4l20.7-24.1h24.5l-23.7,27.9
				L601.5,521.5z"/>
			<path fill="#221F1E" d="M605.7,468.7c3.8-3.3,3.9-4,8.9-5.7s10.1-2.5,15.3-2.5c5.4,0,10.9-0.4,14.7,0.8c3.7,1.2,7.9,2.7,10.2,5.3
				c2.3,2.6,2.8,6.2,3.9,10.1c1.1,3.9,0.6,9.5,0.6,14.9c0,0-1.3,16.1,1.8,16.1c1.2,2,5.5-0.9,6.3,0.8c1.3,1.5,1.7,6-0.1,8.7
				c-1.8,2.7-5.8,3.6-9.4,4.4c-4.2,0.9-12.1,0.6-15.6-1.8c-1.1-0.7-2.3-4.7-2.3-4.7h-0.4c-1.6,2.4-4.1,4.3-7.4,5.7
				c-3.3,1.3-6.9,2-10.7,2c-2.6,0-5.2-0.3-7.9-0.9c-2.7-0.6-5.2-1.7-7.5-3.1c-2.3-1.4-4.1-3.3-5.6-5.7c-1.5-2.4-2.2-5.3-2.2-8.8
				c0-4.3,1.3-7.7,3.8-10.3c2.5-2.6,5.8-4.6,9.7-6c4-1.4,8.4-2.4,13.3-2.8c4.9-0.5,8.6-1.7,13.2-1.7v-0.9c0-2.9-0.1-4.1-2.3-5.4
				c-2.2-1.4-5-2.1-8.2-2.1c-3,0-5.9,0.6-8.7,1.8c-2.8,1.2-11.2,5.9-13.2,7.5L605.7,468.7z M638.5,495.7h-1.1c-2.3,0-4.7-0.3-7,0.3
				c-8.5,2.3-8.3,13.8-3.5,13.8c4.3,0,7.5-1.1,9.8-3.3c2.3-2.2,1.8-5.1,1.8-8.8V495.7z"/>
			<path fill="#221F1E" d="M383.6,468.7c3.8-3.3,3.9-4,8.9-5.7s10.1-2.5,15.3-2.5c5.4,0,10.9-0.4,14.7,0.8c3.7,1.2,7.9,2.7,10.2,5.3
				c2.3,2.6,2.8,6.2,3.9,10.1s0.6,9.5,0.6,14.9c0,0-1.3,16.1,1.8,16.1c1.2,2,5.5-0.9,6.3,0.8c1.3,1.5,1.7,6-0.1,8.7
				c-1.8,2.7-5.8,3.6-9.4,4.4c-4.2,0.9-12.1,0.6-15.6-1.8c-1.1-0.7-2.3-4.7-2.3-4.7h-0.4c-1.6,2.4-4.1,4.3-7.4,5.7
				c-3.3,1.3-6.9,2-10.7,2c-2.6,0-5.2-0.3-7.9-0.9c-2.7-0.6-5.2-1.7-7.5-3.1c-2.3-1.4-4.1-3.3-5.6-5.7c-1.5-2.4-2.2-5.3-2.2-8.8
				c0-4.3,1.3-7.7,3.8-10.3c2.5-2.6,5.8-4.6,9.7-6c4-1.4,8.4-2.4,13.3-2.8c4.9-0.5,8.6-1.7,13.2-1.7v-0.9c0-2.9-0.1-4.1-2.3-5.4
				c-2.2-1.4-5-2.1-8.2-2.1c-3,0-5.9,0.6-8.7,1.8c-2.8,1.2-11.2,5.9-13.2,7.5L383.6,468.7z M416.4,495.7h-1.1c-2.3,0-4.7-0.3-7,0.3
				c-8.5,2.3-8.3,13.8-3.5,13.8c4.3,0,7.5-1.1,9.8-3.3c2.3-2.2,1.8-5.1,1.8-8.8L416.4,495.7L416.4,495.7z"/>
			<path fill="#221F1E" d="M746.2,521.5h-25.5l-23.6-25.6h-0.4l-0.4,25.6h-20.7v-83.6h20.7v47.9h0.4l21-24.6h25L720,489.7
				L746.2,521.5z"/>
			<path fill="#221F1E" d="M808,492.6c0,0.8,0,1.6,0,2.4s0,1.5-0.1,2.2h-43.5c0.2,1.7,0.7,3.2,1.5,4.5s1.9,2.5,3.3,3.5
				c1.3,1,2.8,1.8,4.5,2.3c1.6,0.6,3.4,0.8,5.1,0.8c3.1,0,10.2-0.4,12.5-1c3.2-0.8,14.6-1.9,16-3.8l0.8,11.5
				c-2.8,4-6.9,5.2-12.3,6.4c-5,1.1-11.1,1.8-17.2,1.8c-4.5,0-8.8-0.7-12.8-2.1c-4-1.4-7.5-3.4-10.5-6s-5.4-5.9-7.1-9.8
				c-1.7-3.9-2.6-8.3-2.6-13.3c0-4.8,0.8-9.2,2.5-13.1s4-7.2,6.9-9.9c2.9-2.7,6.3-4.8,10.2-6.3s8.2-2.2,12.8-2.2
				c4.4,0,8.5,0.7,12.2,2.2s6.9,3.6,9.5,6.3c2.7,2.8,4.7,6.1,6.2,10.1C807.2,483,808,487.5,808,492.6z M789.8,485.1
				c0-3.1-1-5.7-3-7.9c-2-2.2-4.9-3.3-8.9-3.3c-1.9,0-3.7,0.3-5.3,0.9s-3,1.4-4.2,2.4s-2.2,2.2-2.9,3.6s-1.1,2.8-1.2,4.3H789.8z"/>
			<path fill="#221F1E" d="M882.9,492.6c0,0.8,0,1.6,0,2.4s0,1.5-0.1,2.2h-45.4c0.2,1.7,0.7,3.2,1.6,4.5c0.9,1.3,2,2.5,3.4,3.5
				s2.9,1.8,4.6,2.3c1.7,0.6,3.5,0.8,5.3,0.8c3.3,0,9.3,0.1,11.6-1s12.8-2.1,14.2-3.9l0.4,9.6c-2.9,4-4.9,4.8-9.7,6.9
				c-4.8,2.2-10.4,3.3-16.8,3.3c-4.7,0-9.1-0.7-13.3-2.1c-4.2-1.4-7.9-3.4-11-6s-5.6-5.9-7.4-9.8c-1.8-3.9-2.7-8.3-2.7-13.3
				c0-4.8,0.9-9.2,2.6-13.1c1.8-3.9,4.1-7.2,7.2-9.9c3-2.7,6.6-4.8,10.7-6.3c4.1-1.5,8.5-2.2,13.3-2.2c4.6,0,8.8,0.7,12.7,2.2
				s7.2,3.6,9.9,6.3c2.8,2.8,4.9,6.1,6.5,10.1C882.1,483,882.9,487.5,882.9,492.6z M863.9,485.1c0-3.1-1-5.7-3.1-7.9
				c-2.1-2.2-5.1-3.3-9.2-3.3c-2,0-3.9,0.3-5.5,0.9c-1.7,0.6-3.1,1.4-4.4,2.4c-1.3,1-2.3,2.2-3,3.6c-0.8,1.4-1.2,2.8-1.3,4.3H863.9z
				"/>
		</g>
		<g>
			<polygon fill="#221F1E" points="1004.9,522.9 981.8,451.6 980.1,451.6 957,522.9 947.5,522.9 921,439.5 928.8,439.5 951.5,508.9 
				953.2,508.9 976.2,439.5 985.9,439.5 1008.9,508.9 1010.6,508.9 1033,439.5 1040.8,439.5 1014.3,522.9 			"/>
			<g>
				<path fill="#221F1E" d="M1107.5,473.9c-0.1-2.4-0.2-4.6-0.3-6.5h6.9c0.1,1.5,0.2,3.2,0.3,5.1c0.1,1.9,0.1,3.4,0.1,4.6h0.2
					c1.4-3.3,3.5-6,6.3-8c2.8-2.1,6-3.1,9.5-3.1c0.9,0,1.7-0.1,2.5-0.1c4.7,0,11.4,5.5,12.2,5.7l-3.6,5.8c-0.4-0.2-8.4-3.3-9.4-3.5
					s-2-0.2-3-0.2c-1.9,0-3.7,0.4-5.5,1.2c-1.8,0.8-3.3,2.1-4.6,3.8c-1.3,1.7-2.4,3.9-3.2,6.6c-0.8,2.7-1.2,5.9-1.2,9.7v25.9h-7.2
					v-41C1107.6,478.3,1107.6,476.4,1107.5,473.9z"/>
				<path fill="#221F1E" d="M1295.2,473.9c-0.1-2.4-0.2-4.6-0.3-6.5h6.9c0.1,1.5,0.2,3.2,0.3,5.1c0.1,1.9,0.1,3.4,0.1,4.6h0.2
					c1.4-3.3,3.5-6,6.3-8c2.8-2.1,6-3.1,9.5-3.1c0.9,0,1.7-0.1,2.5-0.1c4.7,0,11.4,5.5,12.2,5.7l-3.6,5.8c-0.4-0.2-8.4-3.3-9.4-3.5
					s-2-0.2-3-0.2c-1.9,0-3.7,0.4-5.5,1.2c-1.8,0.8-3.3,2.1-4.6,3.8c-1.3,1.7-2.4,3.9-3.2,6.6c-0.8,2.7-1.2,5.9-1.2,9.7v25.9h-7.2
					v-41C1295.3,478.3,1295.2,476.4,1295.2,473.9z"/>
				<path fill="#221F1E" d="M1587.8,473.9c-0.1-2.4-0.2-4.6-0.3-6.5h6.9c0.1,1.5,0.2,3.2,0.3,5.1c0.1,1.9,0.1,3.4,0.1,4.6h0.2
					c1.4-3.3,3.5-6,6.3-8c2.8-2.1,6-3.1,9.5-3.1c0.9,0,1.7-0.1,2.5-0.1c4.7,0,11.4,5.5,12.2,5.7l-3.6,5.8c-0.4-0.2-8.4-3.3-9.4-3.5
					s-2-0.2-3-0.2c-1.9,0-3.7,0.4-5.5,1.2c-1.8,0.8-3.3,2.1-4.6,3.8c-1.3,1.7-2.4,3.9-3.2,6.6c-0.8,2.7-1.2,5.9-1.2,9.7v25.9h-7.2
					v-41C1587.9,478.3,1587.8,476.4,1587.8,473.9z"/>
				<path fill="#221F1E" d="M1157.2,492.9h0.3l26.5-25.6h10.4l-28.6,26l32.4,27.4h-10.6l-30-26.4h-0.3V521h-7.2v-82.2h7.2v54.1
					H1157.2z"/>
				<path fill="#221F1E" d="M1227.4,473.6h-11.6v47.3h-7.2v-47.3h-10.4v-6.3h10.4v-12.1c0-5.9,3.6-10.6,6.8-13.5
					c3.4-3.2,7.2-3.8,12.9-3.8c0.9,0,4.2,0.8,5.2,1.1c1.1,0.4,3.2,1.2,4.1,1.5l-1.3,6.2c-0.8-0.2-1.8-0.7-2.5-0.9
					c-0.8-0.2-2.3-0.7-3.5-0.9c-1.9-0.2-6.1-0.9-8.5,0.2c-1.3,0.6-2.6,1.1-3.3,2.3c-0.7,1.2-2,2.1-2.2,3.4c-0.3,1.6-0.4,3.3-0.4,5.2
					v11.2h11.6L1227.4,473.6L1227.4,473.6z"/>
				<path fill="#221F1E" d="M1284.3,494.1c0,4-0.7,7.8-2.1,11.2c-1.4,3.4-3.3,6.4-5.7,8.9c-2.4,2.5-5.4,4.5-8.8,5.9
					s-7.1,2.1-11.2,2.1c-4,0-7.7-0.7-11.1-2.1c-3.4-1.4-6.3-3.4-8.8-5.9c-2.4-2.5-4.4-5.5-5.7-8.9c-1.4-3.4-2.1-7.2-2.1-11.2
					s0.7-7.8,2.1-11.2c1.4-3.4,3.3-6.4,5.7-8.9c2.4-2.5,5.4-4.5,8.8-5.9s7.1-2.1,11.1-2.1c4.1,0,7.8,0.7,11.2,2.1
					c3.4,1.4,6.3,3.4,8.8,5.9c2.4,2.5,4.3,5.5,5.7,8.9S1284.3,490,1284.3,494.1z M1276.3,494.1c0-3-0.5-5.8-1.4-8.4
					s-2.2-4.9-3.9-6.9c-1.7-1.9-3.8-3.5-6.2-4.6c-2.4-1.1-5.2-1.7-8.2-1.7s-5.8,0.6-8.2,1.7c-2.4,1.1-4.5,2.7-6.2,4.6
					s-3,4.2-3.9,6.9c-0.9,2.6-1.4,5.4-1.4,8.4s0.5,5.8,1.4,8.4s2.2,4.9,3.9,6.9c1.7,1.9,3.8,3.5,6.2,4.6c2.4,1.1,5.1,1.7,8.2,1.7
					c3,0,5.8-0.6,8.2-1.7c2.4-1.1,4.5-2.6,6.2-4.6c1.7-1.9,3-4.2,3.9-6.9C1275.8,499.8,1276.3,497,1276.3,494.1z"/>
				<path fill="#221F1E" d="M1095.9,494.1c0,4-0.7,7.8-2.1,11.2c-1.4,3.4-3.3,6.4-5.7,8.9c-2.4,2.5-5.4,4.5-8.8,5.9
					s-7.1,2.1-11.2,2.1c-4,0-7.7-0.7-11.1-2.1c-3.4-1.4-6.3-3.4-8.8-5.9c-2.4-2.5-4.3-5.5-5.7-8.9c-1.4-3.4-2.1-7.2-2.1-11.2
					s0.7-7.8,2.1-11.2c1.4-3.4,3.3-6.4,5.7-8.9c2.4-2.5,5.4-4.5,8.8-5.9s7.1-2.1,11.1-2.1c4.1,0,7.8,0.7,11.2,2.1
					c3.4,1.4,6.3,3.4,8.8,5.9c2.4,2.5,4.3,5.5,5.7,8.9S1095.9,490,1095.9,494.1z M1087.9,494.1c0-3-0.5-5.8-1.4-8.4
					s-2.2-4.9-3.9-6.9c-1.7-1.9-3.8-3.5-6.2-4.6c-2.4-1.1-5.2-1.7-8.2-1.7s-5.8,0.6-8.2,1.7c-2.4,1.1-4.5,2.7-6.2,4.6
					s-3,4.2-3.9,6.9c-0.9,2.6-1.4,5.4-1.4,8.4s0.5,5.8,1.4,8.4s2.2,4.9,3.9,6.9c1.7,1.9,3.8,3.5,6.2,4.6c2.4,1.1,5.1,1.7,8.2,1.7
					c3,0,5.8-0.6,8.2-1.7c2.4-1.1,4.5-2.6,6.2-4.6c1.7-1.9,3-4.2,3.9-6.9C1087.4,499.8,1087.9,497,1087.9,494.1z"/>
				<path fill="#221F1E" d="M1370.8,479.6c-1.1-2.1-2.8-3.8-4.9-5.1c-2.2-1.3-4.5-2-7-2c-2.7,0-5.2,0.6-7.4,1.7
					c-2.2,1.1-4.1,2.6-5.6,4.6c-1.6,1.9-2.8,4.2-3.6,6.9c-0.8,2.6-1.2,5.5-1.2,8.5c0,3.1,0.4,5.9,1.2,8.5c0.8,2.6,2,4.9,3.5,6.8
					s3.4,3.5,5.6,4.6s4.7,1.7,7.4,1.7c3,0,5.5-0.6,7.6-1.9c2.1-1.3,3.8-3,5.1-5l5.1,4.4c-2,2.8-4.4,5.1-7.3,6.8s-6.4,2.5-10.4,2.5
					c-3.8,0-7.2-0.7-10.3-2.1c-3.1-1.4-5.7-3.4-7.8-5.9c-2.2-2.5-3.8-5.5-5-8.9s-1.8-7.2-1.8-11.2s0.6-7.8,1.8-11.2
					c1.2-3.4,2.9-6.4,5-8.9c2.2-2.5,4.8-4.5,7.8-5.9c3.1-1.4,6.5-2.1,10.3-2.1c3.1,0,6.3,0.8,9.5,2.3c3.2,1.6,5.8,3.9,7.8,6.9
					L1370.8,479.6z"/>
				<path fill="#221F1E" d="M1430.9,492.5c0,0.5,0,1.1,0,1.7s0,1.3-0.1,1.9h-43.7c0.1,2.7,0.6,5.2,1.6,7.5c1,2.4,2.3,4.4,4.1,6.2
					c1.7,1.8,3.8,3.1,6.1,4.2c2.3,1,4.8,1.5,7.5,1.5c4,0,7.4-0.9,10.3-2.8c2.9-1.9,5.1-4,6.6-6.5l5.7,4.6c-3.2,4-6.6,6.9-10.4,8.7
					s-7.9,2.6-12.2,2.6c-3.9,0-7.5-0.7-10.9-2.1c-3.3-1.4-6.2-3.4-8.6-5.9s-4.3-5.5-5.7-8.9c-1.4-3.4-2.1-7.2-2.1-11.2
					s0.7-7.8,2-11.2c1.4-3.4,3.2-6.4,5.6-8.9s5.2-4.5,8.5-5.9c3.2-1.4,6.7-2.1,10.5-2.1c4.1,0,7.8,0.7,10.9,2.1
					c3.2,1.4,5.8,3.3,7.9,5.7c2.1,2.4,3.7,5.2,4.8,8.4C1430.3,485.4,1430.9,488.8,1430.9,492.5z M1423.1,490
					c-0.2-5-1.8-9.2-4.8-12.5s-7.2-5-12.7-5c-2.6,0-4.9,0.5-7.1,1.4c-2.2,1-4.1,2.2-5.7,3.9c-1.7,1.6-3,3.5-3.9,5.6
					c-1,2.1-1.5,4.3-1.7,6.6H1423.1z"/>
				<path fill="#221F1E" d="M1577.3,492.5c0,0.5,0,1.1,0,1.7s0,1.3-0.1,1.9h-43.7c0.1,2.7,0.6,5.2,1.6,7.5c1,2.4,2.3,4.4,4.1,6.2
					c1.7,1.8,3.8,3.1,6.1,4.2c2.3,1,4.8,1.5,7.5,1.5c4,0,7.4-0.9,10.3-2.8c2.9-1.9,5.1-4,6.6-6.5l5.7,4.6c-3.2,4-6.6,6.9-10.4,8.7
					s-7.9,2.6-12.2,2.6c-3.9,0-7.5-0.7-10.9-2.1c-3.3-1.4-6.2-3.4-8.6-5.9s-4.3-5.5-5.7-8.9c-1.4-3.4-2.1-7.2-2.1-11.2
					s0.7-7.8,2-11.2c1.4-3.4,3.2-6.4,5.6-8.9s5.2-4.5,8.5-5.9c3.2-1.4,6.7-2.1,10.5-2.1c4.1,0,7.8,0.7,10.9,2.1
					c3.2,1.4,5.8,3.3,7.9,5.7c2.1,2.4,3.7,5.2,4.8,8.4C1576.8,485.4,1577.3,488.8,1577.3,492.5z M1569.6,490
					c-0.2-5-1.8-9.2-4.8-12.5s-7.2-5-12.7-5c-2.6,0-4.9,0.5-7.1,1.4c-2.2,1-4.1,2.2-5.7,3.9c-1.7,1.6-3,3.5-3.9,5.6
					c-1,2.1-1.5,4.3-1.7,6.6H1569.6z"/>
				<path fill="#221F1E" d="M1800.7,492.5c0,0.5,0,1.1,0,1.7s0,1.3-0.1,1.9h-43.7c0.1,2.7,0.6,5.2,1.6,7.5c1,2.4,2.3,4.4,4.1,6.2
					c1.7,1.8,3.8,3.1,6.1,4.2c2.3,1,4.8,1.5,7.5,1.5c4,0,7.4-0.9,10.3-2.8c2.9-1.9,5.1-4,6.6-6.5l5.7,4.6c-3.2,4-6.6,6.9-10.4,8.7
					s-7.9,2.6-12.2,2.6c-3.9,0-7.5-0.7-10.9-2.1c-3.3-1.4-6.2-3.4-8.6-5.9s-4.3-5.5-5.7-8.9c-1.4-3.4-2.1-7.2-2.1-11.2
					s0.7-7.8,2-11.2c1.4-3.4,3.2-6.4,5.6-8.9s5.2-4.5,8.5-5.9c3.2-1.4,6.7-2.1,10.5-2.1c4.1,0,7.8,0.7,10.9,2.1
					c3.2,1.4,5.8,3.3,7.9,5.7c2.1,2.4,3.7,5.2,4.8,8.4C1800.1,485.4,1800.7,488.8,1800.7,492.5z M1792.9,490
					c-0.2-5-1.8-9.2-4.8-12.5s-7.2-5-12.7-5c-2.6,0-4.9,0.5-7.1,1.4c-2.2,1-4.1,2.2-5.7,3.9c-1.7,1.6-3,3.5-3.9,5.6
					c-1,2.1-1.5,4.3-1.7,6.6H1792.9z"/>
				<path fill="#221F1E" d="M1510.2,451.5c-1.6-2.5-3.7-4.4-6.2-5.9s-5.6-2.2-9.2-2.2c-1.8,0-3.7,0.3-5.6,0.9s-3.6,1.6-5.2,2.8
					c-1.6,1.3-2.8,2.9-3.8,4.8s-1.4,4.2-1.4,6.8c0,2.6,0.5,4.8,1.4,6.4c0.9,1.7,2.1,3.1,3.6,4.3c1.5,1.2,3.2,2.2,5.2,2.9
					c1.9,0.8,4,1.5,6.1,2.3c2.6,0.9,5.2,1.9,7.9,3c2.6,1.1,5,2.5,7.1,4.2s3.8,3.9,5.2,6.6c1.3,2.6,2,6,2,10.1s-0.7,7.6-2.1,10.5
					c-1.4,3-3.3,5.4-5.6,7.3c-2.3,1.9-4.9,3.3-7.8,4.3c-2.9,0.9-5.9,1.4-8.8,1.4c-2.3,0-4.5-0.2-6.8-0.7s-4.4-1.2-6.5-2.2
					c-2-1-4-2.3-5.7-3.8c-1.8-1.5-3.3-3.3-4.7-5.3l6.6-5.3c1.6,2.9,3.9,5.4,6.8,7.3c2.9,2,6.4,2.9,10.3,2.9c1.9,0,3.8-0.3,5.8-1
					s3.8-1.6,5.3-3c1.6-1.3,2.9-3,3.9-4.9c1-2,1.5-4.2,1.5-6.8c0-2.8-0.5-5.2-1.5-7.1s-2.4-3.5-4.1-4.7s-3.6-2.3-5.8-3.2
					c-2.2-0.8-4.5-1.7-6.9-2.5c-2.5-0.8-4.9-1.8-7.3-2.9s-4.5-2.5-6.5-4.2c-1.9-1.7-3.4-3.9-4.6-6.4s-1.7-5.6-1.7-9.3
					c0-3.9,0.7-7.3,2.2-10.1c1.4-2.8,3.3-5.2,5.7-7s4.9-3.2,7.7-4c2.8-0.8,5.6-1.3,8.4-1.3c5.1,0,9.4,1,13,2.9c3.6,2,6.3,4.3,8.1,7
					L1510.2,451.5z"/>
				<path fill="#221F1E" d="M1657.5,523.9h-8.8l-22.4-56.4h8.9l17.8,47.8h0.2l18-47.8h8.6L1657.5,523.9z"/>
				<path fill="#221F1E" d="M1693.5,445.7c0,1.7-0.5,3.1-1.6,4.2s-2.2,1.6-3.5,1.6s-2.4-0.5-3.5-1.6s-1.6-2.5-1.6-4.2
					s0.5-3.1,1.6-4.2s2.2-1.6,3.5-1.6s2.4,0.5,3.5,1.6S1693.5,444,1693.5,445.7z M1692,523.9h-7.2v-56.4h7.2V523.9z"/>
				<path fill="#221F1E" d="M1741.2,480.3c-1.2-2.2-2.9-4-5.2-5.4c-2.3-1.4-4.8-2.1-7.5-2.1c-2.9,0-5.5,0.6-7.8,1.7
					c-2.3,1.2-4.3,2.8-6,4.8c-1.7,2.1-2.9,4.5-3.8,7.2c-0.9,2.8-1.3,5.8-1.3,9s0.4,6.2,1.3,8.9c0.9,2.7,2.1,5.1,3.8,7.2
					c1.6,2.1,3.6,3.7,5.9,4.8c2.3,1.2,4.9,1.7,7.8,1.7c3.2,0,5.9-0.7,8-2.1c2.2-1.4,4-3.1,5.4-5.3l5.4,4.6c-2.1,3-4.7,5.3-7.8,7.1
					s-6.8,2.7-11.1,2.7c-4,0-7.7-0.7-10.9-2.2c-3.2-1.5-6-3.6-8.3-6.2c-2.3-2.7-4.1-5.8-5.3-9.4s-1.9-7.6-1.9-11.8
					c0-4.3,0.6-8.2,1.9-11.8s3-6.8,5.3-9.4c2.3-2.7,5.1-4.7,8.3-6.2c3.2-1.5,6.9-2.2,10.9-2.2c3.3,0,6.7,0.8,10.1,2.5
					c3.4,1.6,6.2,4.1,8.3,7.3L1741.2,480.3z"/>
				<path fill="#221F1E" d="M1834.9,480c-1-2.2-2.5-4-4.5-5.4s-4.3-2.1-6.9-2.1c-1.2,0-2.4,0.2-3.6,0.5s-2.3,0.8-3.2,1.5
					c-0.9,0.7-1.7,1.6-2.2,2.6c-0.6,1.1-0.8,2.3-0.8,3.7c0,2.5,0.9,4.4,2.7,5.7c1.8,1.3,4.6,2.4,8.5,3.4c5.5,1.3,9.6,3.2,12.2,5.6
					c2.6,2.5,3.9,5.8,3.9,9.9c0,3-0.5,5.6-1.5,7.7c-1,2.1-2.4,3.8-4,5.1c-1.7,1.3-3.5,2.3-5.6,2.8c-2.1,0.6-4.2,0.9-6.3,0.9
					c-3.5,0-6.9-0.8-10.3-2.5c-3.3-1.7-6-4.3-8.2-7.8l5.4-4.5c1.2,2.3,3,4.3,5.3,5.9c2.3,1.6,4.9,2.4,7.7,2.4c1.5,0,2.9-0.2,4.2-0.5
					c1.3-0.3,2.5-0.8,3.5-1.6s1.8-1.7,2.4-2.9c0.6-1.2,0.9-2.6,0.9-4.4c0-2.8-1.2-4.9-3.5-6.3c-2.4-1.4-5.8-2.7-10.2-3.9
					c-1.4-0.4-2.9-0.9-4.4-1.4c-1.6-0.6-3-1.4-4.3-2.5s-2.4-2.5-3.3-4.1c-0.9-1.7-1.3-3.7-1.3-6.2c0-2.7,0.5-5.1,1.4-7
					s2.2-3.5,3.7-4.8c1.6-1.2,3.3-2.2,5.3-2.8c2-0.6,4.1-0.9,6.2-0.9c3.3,0,6.4,0.8,9.5,2.5s5.3,4,6.9,7L1834.9,480z"/>
			</g>
		</g>
	</g>
	<g>
		<g>
			<path fill="#959697" d="M149.3,907.4l-5.4-13.6h-24.1l-5.4,13.6h-7.7l22.1-53.6h6.2l22,53.6H149.3z M141.2,887l-9.4-23.7
				l-9.4,23.7H141.2z"/>
			<path fill="#959697" d="M182.1,922.7v-52.5h6.6v4c1.1-1.3,2.4-2.3,3.9-3.1c2.3-1.2,4.7-1.8,7.1-1.8c2.6,0,5,0.5,7.1,1.4
				c2.1,1,3.9,2.3,5.4,4s2.7,3.6,3.5,5.9c0.8,2.2,1.2,4.7,1.2,7.3s-0.4,5-1.2,7.3s-2,4.2-3.5,5.9s-3.3,3-5.4,4
				c-2.1,1-4.5,1.4-7.1,1.4c-2.4,0-4.8-0.6-7.1-1.8c-1.5-0.8-2.8-1.8-3.9-3v21L182.1,922.7L182.1,922.7z M199.2,875.4
				c-1.6,0-3.1,0.3-4.4,0.9c-1.3,0.6-2.5,1.5-3.5,2.6s-1.8,2.4-2.3,4c-0.6,1.5-0.8,3.2-0.8,5s0.3,3.4,0.8,5c0.6,1.5,1.3,2.8,2.3,3.9
				c1,1.1,2.2,2,3.5,2.6s2.8,0.9,4.4,0.9c1.7,0,3.3-0.3,4.6-0.9c1.3-0.6,2.5-1.5,3.4-2.6s1.6-2.4,2.1-4c0.5-1.5,0.8-3.2,0.8-4.9
				s-0.3-3.4-0.8-4.9s-1.2-2.8-2.1-4c-0.9-1.1-2-2-3.4-2.6C202.4,875.7,200.9,875.4,199.2,875.4z"/>
			<path fill="#959697" d="M224.2,907.4V879c0-0.9,0-2.2-0.1-3.7c0-1.5-0.1-2.8-0.2-4l-0.1-1.1h6.7l0.1,0.9c0.1,0.9,0.2,1.9,0.2,3
				c0.8-1,1.8-2,3-2.7c2.1-1.4,4.5-2.1,7.1-2.1c0.7,0,1.3,0,1.8,0.1c0.6,0.1,1.1,0.2,1.7,0.3l0.8,0.2l-0.9,7l-1.2-0.4
				c-0.2-0.1-0.5-0.1-1.3-0.3c-0.6-0.1-1.3-0.1-1.9-0.1c-1.2,0-2.3,0.2-3.4,0.7c-1,0.4-2,1.1-2.8,2.1s-1.5,2.3-2,3.8
				c-0.5,1.6-0.8,3.5-0.8,5.7v19H224.2z"/>
			<path fill="#959697" d="M267.2,908.3c-2.7,0-5.3-0.5-7.6-1.5c-2.3-1-4.4-2.4-6-4.1c-1.7-1.7-3-3.8-3.9-6.2s-1.4-5-1.4-7.7
				c0-2.8,0.5-5.4,1.4-7.7c0.9-2.4,2.3-4.4,3.9-6.2c1.7-1.7,3.7-3.1,6-4.1s4.9-1.5,7.6-1.5c2.8,0,5.4,0.5,7.7,1.5
				c2.3,1,4.4,2.4,6,4.1c1.7,1.7,3,3.8,3.9,6.2s1.4,5,1.4,7.7c0,2.8-0.5,5.4-1.4,7.7c-0.9,2.4-2.3,4.5-3.9,6.2
				c-1.7,1.7-3.7,3.1-6,4.1C272.6,907.8,270,908.3,267.2,908.3z M267.2,875.6c-1.8,0-3.5,0.3-4.9,1s-2.7,1.6-3.7,2.8
				s-1.8,2.6-2.4,4.2c-0.6,1.6-0.8,3.4-0.8,5.2s0.3,3.6,0.8,5.2c0.6,1.6,1.4,3,2.4,4.2s2.2,2.1,3.7,2.8c1.4,0.7,3.1,1,4.9,1
				s3.5-0.3,4.9-1s2.7-1.6,3.7-2.8s1.8-2.6,2.4-4.2c0.6-1.6,0.8-3.4,0.8-5.2s-0.3-3.6-0.8-5.2c-0.6-1.6-1.4-3-2.4-4.2
				s-2.3-2.1-3.7-2.8C270.7,875.9,269,875.6,267.2,875.6z"/>
			<path fill="#959697" d="M308.4,908.3c-4.6,0-8.1-1.5-10.4-4.4c-2.3-2.8-3.4-6.6-3.4-11.2v-22.6h6.9v20.5c0,1.8,0.1,3.4,0.4,4.8
				c0.3,1.4,0.7,2.6,1.3,3.5c0.6,0.9,1.4,1.6,2.4,2.2c1,0.5,2.4,0.8,4,0.8c1.2,0,2.3-0.2,3.4-0.7s2.1-1.2,2.9-2.3
				c0.9-1,1.6-2.4,2.1-4s0.8-3.6,0.8-5.8v-19h6.9v28.4c0,0.9,0,2.2,0.1,3.7c0,1.5,0.1,2.8,0.2,4l0.1,1.1h-6.7l-0.1-0.9
				c-0.1-0.9-0.2-2-0.2-3.1c-0.9,1.1-2.1,2-3.4,2.8C313.5,907.6,311,908.3,308.4,908.3z"/>
			<path fill="#959697" d="M351.4,908.3c-2.5,0-4.9-0.5-7-1.5s-3.9-2.3-5.3-4c-1.5-1.7-2.6-3.7-3.4-6s-1.2-4.8-1.2-7.4
				c0-2.6,0.4-5.1,1.2-7.4c0.8-2.3,2-4.3,3.4-6c1.5-1.7,3.3-3.1,5.3-4c2.1-1,4.4-1.5,7-1.5c2.4,0,4.7,0.6,7,1.8
				c1.4,0.8,2.7,1.8,3.8,3v-24.9h6.5v56.9h-6.5v-3.9c-1.1,1.2-2.4,2.2-3.8,3C356.2,907.7,353.8,908.3,351.4,908.3z M351.9,876.7
				c-1.7,0-3.2,0.3-4.5,1s-2.4,1.6-3.3,2.7c-0.9,1.1-1.6,2.5-2.1,4c-0.5,1.6-0.7,3.3-0.7,5c0,1.8,0.2,3.5,0.7,5s1.2,2.9,2.1,4
				s2,2,3.3,2.6s2.8,1,4.5,1c1.6,0,3-0.3,4.3-1c1.3-0.6,2.5-1.5,3.4-2.6c1-1.1,1.7-2.5,2.3-4c0.6-1.6,0.8-3.3,0.8-5.1
				s-0.3-3.5-0.8-5.1c-0.5-1.5-1.3-2.9-2.3-4s-2.1-2-3.4-2.7C354.9,877,353.5,876.7,351.9,876.7z"/>
			<path fill="#959697" d="M398.9,922.7v-52.5h6.7v4.1c1.2-1.3,2.6-2.3,4.2-3.1c2.4-1.2,4.8-1.8,7.3-1.8c2.7,0,5.1,0.5,7.3,1.4
				c2.2,1,4.1,2.3,5.6,3.9c1.5,1.7,2.8,3.6,3.6,5.9c0.9,2.2,1.3,4.7,1.3,7.3s-0.4,5-1.3,7.3s-2.1,4.2-3.6,5.9
				c-1.6,1.7-3.4,3-5.6,3.9c-2.2,1-4.7,1.4-7.3,1.4c-2.5,0-4.9-0.6-7.3-1.8c-1.6-0.8-3-1.8-4.2-3.1v21.1L398.9,922.7L398.9,922.7z
				 M416.6,875.4c-1.7,0-3.2,0.3-4.6,0.9c-1.4,0.6-2.6,1.5-3.6,2.6s-1.8,2.4-2.4,4c-0.6,1.5-0.9,3.2-0.9,5s0.3,3.4,0.9,5
				c0.6,1.5,1.4,2.8,2.4,3.9c1,1.1,2.2,2,3.7,2.6c1.4,0.6,2.9,0.9,4.6,0.9c1.8,0,3.4-0.3,4.8-0.9c1.4-0.6,2.6-1.5,3.5-2.6
				c1-1.1,1.7-2.4,2.2-3.9s0.8-3.2,0.8-4.9s-0.3-3.4-0.8-4.9s-1.3-2.8-2.2-3.9c-0.9-1.1-2.1-2-3.5-2.6
				C420,875.7,418.4,875.4,416.6,875.4z"/>
			<path fill="#959697" d="M452,908.3c-1.4,0-2.8-0.2-4.3-0.6c-1.5-0.4-2.9-1.1-4.1-2s-2.3-2.2-3.1-3.6c-0.8-1.5-1.2-3.3-1.2-5.5
				c0-2.9,0.7-5.3,2.2-7.1c1.4-1.7,3.4-3,5.7-3.8c2.3-0.8,4.9-1.3,7.9-1.6c2.6-0.2,5.3-0.3,8-0.3v-0.1c0-2.7-0.7-4.8-2-6.1
				s-3.4-2-6-2c-1.9,0-3.6,0.4-5.2,1c-1.6,0.7-3,1.6-4.1,2.8l-0.8,0.8l-4-4.9l0.6-0.6c1.5-1.5,3.5-2.8,5.9-3.8s5.1-1.5,8.2-1.5
				c1.9,0,3.8,0.3,5.4,0.8c1.7,0.6,3.2,1.4,4.5,2.6c1.3,1.1,2.3,2.6,3.1,4.4c0.7,1.7,1.1,3.7,1.1,6v15.4c0,1.3,0,2.7,0.1,4.1
				c0.1,1.4,0.2,2.6,0.4,3.6l0.2,1.2H464l-0.1-0.8c-0.1-0.9-0.3-1.8-0.4-2.9c0-0.1,0-0.2,0-0.4c-1.2,1.4-2.6,2.5-4,3.3
				C457.4,907.8,454.9,908.3,452,908.3z M462.7,889.8c-2,0-4,0.1-6,0.3s-3.8,0.5-5.3,1s-2.8,1.2-3.7,2.1c-0.9,0.8-1.3,1.9-1.3,3.3
				c0,1.1,0.2,2,0.6,2.7s0.9,1.3,1.5,1.7c0.7,0.5,1.4,0.8,2.2,1c0.9,0.2,1.7,0.3,2.6,0.3c1.6,0,3-0.3,4.2-0.8
				c1.2-0.6,2.2-1.3,3.1-2.3c0.8-1,1.5-2.1,1.9-3.4c0.4-1.3,0.7-2.7,0.7-4.1V890h-0.5V889.8z"/>
			<path fill="#959697" d="M480.4,907.4V879c0-0.9,0-2.2-0.1-3.7c0-1.5-0.1-2.8-0.2-4l-0.1-1.1h6.7l0.1,0.9c0.1,0.9,0.2,1.9,0.2,3
				c0.8-1,1.8-2,3-2.7c2.1-1.4,4.5-2.1,7.1-2.1c0.7,0,1.3,0,1.8,0.1c0.6,0.1,1.1,0.2,1.7,0.3l0.8,0.2l-0.9,7l-1.2-0.4
				c-0.2-0.1-0.5-0.1-1.3-0.3c-0.6-0.1-1.3-0.1-1.9-0.1c-1.2,0-2.3,0.2-3.4,0.7c-1,0.4-2,1.1-2.8,2.1s-1.5,2.3-2,3.8
				c-0.5,1.6-0.8,3.5-0.8,5.7v19H480.4z"/>
			<path fill="#959697" d="M521,907.9c-1,0-2-0.1-3.1-0.4c-1.2-0.3-2.2-0.8-3.2-1.6s-1.8-1.9-2.4-3.2c-0.6-1.3-0.9-3.1-0.9-5.2v-21
				h-7v-6.3h7v-9.9h6.9v9.9h9.5v6.3h-9.5V896c0,1.2,0.1,2.2,0.3,3c0.2,0.7,0.5,1.2,0.8,1.6c0.3,0.4,0.7,0.6,1.2,0.7
				c0.5,0.1,1.1,0.2,1.8,0.2c0.6,0,1.2-0.1,1.9-0.3s1.3-0.4,1.9-0.7l1.4-0.7l0.3,6.7l-0.7,0.3c-0.9,0.4-1.9,0.7-2.9,0.8
				C523.2,907.8,522.1,907.9,521,907.9z"/>
			<path fill="#959697" d="M559.8,907.4v-20.5c0-1.8-0.1-3.4-0.4-4.8c-0.3-1.4-0.7-2.6-1.3-3.5s-1.4-1.6-2.4-2.2
				c-1-0.5-2.4-0.8-4-0.8c-1.2,0-2.3,0.2-3.4,0.7c-1.1,0.5-2.1,1.2-2.9,2.3c-0.9,1-1.6,2.4-2.1,4s-0.8,3.6-0.8,5.8v19h-6.9V879
				c0-0.9,0-2.2-0.1-3.7c0-1.5-0.1-2.8-0.2-4l-0.1-1.1h6.7l0.1,0.9c0.1,0.9,0.2,2,0.2,3.1c0.9-1.1,2.1-2,3.4-2.8
				c2.3-1.4,4.8-2.1,7.4-2.1c4.6,0,8.1,1.5,10.4,4.4c2.3,2.8,3.4,6.6,3.4,11.2v22.6h-7V907.4z"/>
			<path fill="#959697" d="M593.4,908.3c-2.6,0-5.1-0.5-7.4-1.5c-2.3-1-4.2-2.4-5.9-4.1c-1.6-1.7-2.9-3.8-3.8-6.2
				c-0.9-2.4-1.4-5-1.4-7.7c0-2.8,0.5-5.4,1.4-7.7c0.9-2.4,2.2-4.5,3.8-6.2s3.6-3.1,5.7-4.1c2.2-1,4.6-1.5,7.1-1.5
				c2.8,0,5.3,0.5,7.4,1.5c2.1,1,4,2.3,5.4,4s2.5,3.6,3.3,5.9c0.7,2.2,1.1,4.6,1.1,7.1v1.1c0,0.4,0,0.9-0.1,1.4l-0.1,0.9H582
				c0.1,1.3,0.4,2.5,0.9,3.6c0.6,1.4,1.4,2.7,2.4,3.7c1,1.1,2.2,1.9,3.6,2.5c1.4,0.6,2.8,0.9,4.4,0.9c2.3,0,4.4-0.6,6.1-1.7
				c1.7-1.1,3-2.5,3.9-3.9l0.6-1l5.3,4.3l-0.6,0.8c-2.1,2.8-4.5,4.8-7.1,6C599.1,907.7,596.4,908.3,593.4,908.3z M603.1,885.1
				c-0.3-2.6-1.2-4.8-2.7-6.6c-1.7-2-4.1-2.9-7.4-2.9c-1.5,0-2.9,0.3-4.1,0.9c-1.3,0.6-2.4,1.4-3.4,2.3c-1,1-1.8,2.1-2.3,3.4
				c-0.4,0.9-0.7,1.9-0.9,2.9L603.1,885.1L603.1,885.1z"/>
			<path fill="#959697" d="M616.7,907.4V879c0-0.9,0-2.2-0.1-3.7c0-1.5-0.1-2.8-0.2-4l-0.1-1.1h6.7l0.1,0.9c0.1,0.9,0.2,1.9,0.2,3
				c0.8-1,1.8-2,3-2.7c2.1-1.4,4.5-2.1,7.1-2.1c0.7,0,1.3,0,1.8,0.1c0.6,0.1,1.1,0.2,1.7,0.3l0.8,0.2l-0.9,7l-1.2-0.4
				c-0.2-0.1-0.5-0.1-1.3-0.3c-0.6-0.1-1.3-0.1-1.9-0.1c-1.2,0-2.3,0.2-3.4,0.7c-1,0.4-2,1.1-2.8,2.1s-1.5,2.3-2,3.8
				c-0.5,1.6-0.8,3.5-0.8,5.7v19H616.7z"/>
			<path fill="#959697" d="M679.3,908.3c-2.7,0-5.3-0.5-7.6-1.5s-4.4-2.4-6-4.1c-1.7-1.7-3-3.8-3.9-6.2s-1.4-5-1.4-7.7
				c0-2.8,0.5-5.4,1.4-7.7c0.9-2.4,2.3-4.4,3.9-6.2c1.7-1.7,3.7-3.1,6-4.1s4.9-1.5,7.6-1.5c2.8,0,5.4,0.5,7.7,1.5s4.4,2.4,6,4.1
				c1.7,1.7,3,3.8,3.9,6.2s1.4,5,1.4,7.7c0,2.8-0.5,5.4-1.4,7.7c-0.9,2.4-2.3,4.5-3.9,6.2c-1.7,1.7-3.7,3.1-6,4.1
				S682.1,908.3,679.3,908.3z M679.3,875.6c-1.8,0-3.5,0.3-4.9,1s-2.7,1.6-3.7,2.8s-1.8,2.6-2.4,4.2c-0.6,1.6-0.8,3.4-0.8,5.2
				s0.3,3.6,0.8,5.2c0.6,1.6,1.4,3,2.4,4.2s2.2,2.1,3.7,2.8c1.4,0.7,3.1,1,4.9,1c1.8,0,3.5-0.3,4.9-1s2.7-1.6,3.7-2.8
				s1.8-2.6,2.4-4.2c0.6-1.6,0.8-3.4,0.8-5.2s-0.3-3.6-0.8-5.2c-0.6-1.6-1.4-3-2.4-4.2s-2.3-2.1-3.7-2.8
				C682.8,875.9,681.2,875.6,679.3,875.6z"/>
			<path fill="#959697" d="M709.4,907.4v-31.1h-7.1v-6h7.1v-6c0-4,1-7.2,3.1-9.6c2.1-2.4,5.2-3.6,9.4-3.6c0.6,0,1.4,0,2.1,0.1
				c0.8,0.1,1.5,0.2,2.2,0.4l0.9,0.3l-1.3,6.2l-1-0.3c-0.5-0.1-1-0.2-1.5-0.3s-1-0.1-1.6-0.1c-1.1,0-2.1,0.2-2.8,0.5
				s-1.2,0.8-1.5,1.4c-0.4,0.7-0.7,1.5-0.8,2.4c-0.2,1-0.2,2-0.2,3.2v5.5h7.9v6h-7.9v31.1h-7V907.4z"/>
			<path fill="#959697" d="M764.5,907.9c-1,0-2-0.1-3.1-0.4c-1.2-0.3-2.2-0.8-3.2-1.6s-1.8-1.9-2.4-3.2c-0.6-1.3-0.9-3.1-0.9-5.2
				v-21h-7v-6.3h7v-9.9h6.9v9.9h9.5v6.3h-9.5V896c0,1.2,0.1,2.2,0.3,3c0.2,0.7,0.5,1.2,0.8,1.6c0.3,0.4,0.7,0.6,1.2,0.7
				c0.5,0.1,1.1,0.2,1.8,0.2c0.6,0,1.2-0.1,1.9-0.3s1.3-0.4,1.9-0.7l1.4-0.7l0.3,6.7l-0.7,0.3c-0.9,0.4-1.9,0.7-2.9,0.8
				C766.8,907.8,765.7,907.9,764.5,907.9z"/>
			<path fill="#959697" d="M804.4,906.8v-20.1c0-1.7-0.1-3.3-0.4-4.7c-0.3-1.3-0.8-2.5-1.4-3.4c-0.7-0.9-1.5-1.6-2.6-2.1
				s-2.6-0.8-4.4-0.8c-1.3,0-2.5,0.2-3.7,0.7s-2.3,1.2-3.2,2.2s-1.7,2.3-2.3,3.9c-0.6,1.6-0.9,3.5-0.9,5.7v18.7h-7.3v-54.7h7.3V874
				c1-1.1,2.2-2,3.6-2.7c2.4-1.2,5-1.9,7.8-1.9c4.9,0,8.6,1.4,11.1,4.2s3.7,6.5,3.7,11v22.1h-7.3V906.8z"/>
			<path fill="#959697" d="M837.1,908.3c-2.6,0-5.1-0.5-7.4-1.5c-2.3-1-4.2-2.4-5.9-4.1c-1.6-1.7-2.9-3.8-3.8-6.2
				c-0.9-2.4-1.4-5-1.4-7.7c0-2.8,0.5-5.4,1.4-7.7c0.9-2.4,2.2-4.5,3.8-6.2s3.6-3.1,5.7-4.1c2.2-1,4.6-1.5,7.1-1.5
				c2.8,0,5.3,0.5,7.4,1.5c2.1,1,4,2.3,5.4,4s2.5,3.6,3.3,5.9c0.7,2.2,1.1,4.6,1.1,7.1v1.1c0,0.4,0,0.9-0.1,1.4l-0.1,0.9h-27.9
				c0.1,1.3,0.4,2.5,0.9,3.6c0.6,1.4,1.4,2.7,2.4,3.7c1,1.1,2.2,1.9,3.6,2.5c1.4,0.6,2.8,0.9,4.4,0.9c2.3,0,4.4-0.6,6.1-1.7
				c1.7-1.1,3-2.5,3.9-3.9l0.6-1l5.3,4.3l-0.6,0.8c-2.1,2.8-4.5,4.8-7.1,6C842.8,907.7,840.1,908.3,837.1,908.3z M846.8,885.1
				c-0.3-2.6-1.2-4.8-2.7-6.6c-1.7-2-4.1-2.9-7.4-2.9c-1.5,0-2.9,0.3-4.1,0.9c-1.3,0.6-2.4,1.4-3.4,2.3c-1,1-1.8,2.1-2.3,3.4
				c-0.4,0.9-0.7,1.9-0.9,2.9L846.8,885.1L846.8,885.1z"/>
		</g>
		<g>
			<path fill="#314383" d="M1204.5,820.7c-32.3-8.1-61.6,1.1-90.1,14c-13.1,5.9-25.6,12.9-36.2,22.9c-1.7,1.6-2.9,5.2-6.2,2.7
				c-3-2.2-2.8-5.6-1.9-8.8c0.7-2.5,3-3.6,4.8-4.8c31.8-20.7,66.2-33.2,104.6-32.3C1188.4,814.6,1197,816.2,1204.5,820.7z"/>
			<g>
				<path fill="#154A8D" d="M915.1,906l-5.5-13.2h-24.5l-5.4,13.2H872l22.4-52.4h6.3L923,906H915.1z M906.9,886.1l-9.5-23.1
					l-9.5,23.1H906.9z"/>
				<path fill="#154A8D" d="M978.2,906v-20.2c0-3.4-0.6-6.2-1.9-8.3c-1.2-1.9-3.2-2.9-6.2-2.9c-1.7,0-3.1,0.3-4.2,1
					c-1.1,0.7-2.1,1.5-2.7,2.6c-0.7,1.1-1.2,2.4-1.6,3.8c-0.3,1.4-0.5,3-0.5,4.5V906H954v-21.2c0-1.6-0.1-3.1-0.4-4.4
					c-0.2-1.2-0.6-2.3-1.2-3.2c-0.5-0.8-1.2-1.4-2.2-1.9s-2.2-0.7-3.8-0.7c-1.1,0-2.1,0.2-3.2,0.7c-1.1,0.5-2.1,1.2-3,2.2
					s-1.6,2.3-2.2,3.9c-0.6,1.6-0.8,3.5-0.8,5.7V906h-7.1v-28c0-0.9,0-2.1-0.1-3.6c0-1.5-0.1-2.8-0.2-4l-0.1-1.1h6.9l0.1,0.9
					c0.1,0.9,0.2,2,0.2,3.1c0.9-1.1,2-2,3.3-2.8c2.2-1.3,4.7-2,7.5-2c1,0,2.1,0.1,3.2,0.3c1.1,0.2,2.2,0.6,3.3,1.3
					c1.1,0.6,2.1,1.4,3,2.5c0.5,0.6,1,1.3,1.5,2.2c1.2-1.7,2.6-3.1,4.3-4.2c2.2-1.3,4.9-2,7.9-2c4.7,0,8.4,1.4,10.8,4.3
					c2.4,2.8,3.6,6.5,3.6,11V906H978.2z"/>
				<path fill="#154A8D" d="M1013.2,908.5c-2.7,0-5.3-0.5-7.7-1.6c-2.3-1.1-4.4-2.6-6.1-4.4c-1.7-1.9-3-4.1-4-6.7
					c-1-2.5-1.5-5.4-1.5-8.3c0-3,0.5-5.8,1.4-8.3c0.9-2.6,2.3-4.8,4-6.7s3.7-3.4,6-4.4c2.3-1.1,4.8-1.6,7.4-1.6
					c2.9,0,5.5,0.5,7.7,1.6s4.1,2.5,5.6,4.3s2.6,3.9,3.4,6.3c0.8,2.4,1.1,4.9,1.1,7.6v1.2c0,0.5,0,0.9-0.1,1.5l-0.1,0.9h-29
					c0.1,1.4,0.4,2.8,0.9,4c0.6,1.6,1.4,2.9,2.5,4.1c1.1,1.1,2.3,2.1,3.8,2.7c1.4,0.7,3,1,4.6,1c2.4,0,4.6-0.6,6.3-1.8
					c1.8-1.2,3.2-2.7,4.1-4.3l0.6-1l5.5,4.6l-0.5,0.8c-2.2,3-4.7,5.2-7.3,6.5C1019.1,907.8,1016.2,908.5,1013.2,908.5z
					 M1023.3,883.5c-0.3-2.9-1.3-5.3-2.9-7.3c-1.8-2.1-4.3-3.2-7.7-3.2c-1.5,0-3,0.3-4.3,0.9c-1.3,0.6-2.5,1.5-3.5,2.6
					s-1.8,2.3-2.4,3.7c-0.5,1.1-0.8,2.2-0.9,3.3H1023.3z"/>
				<path fill="#154A8D" d="M1038.5,906v-28c0-0.9,0-2.1-0.1-3.6s-0.1-2.8-0.2-4l-0.1-1.1h6.9l0.1,0.9c0.1,0.9,0.2,1.9,0.2,3
					c0.9-1.1,2-2,3.2-2.8c2.2-1.4,4.6-2,7.3-2c0.7,0,1.3,0,1.9,0.1s1.2,0.2,1.8,0.3l0.9,0.2l-1,6.9l-1.1-0.4
					c-0.2-0.1-0.5-0.1-1.3-0.3c-0.7-0.1-1.3-0.1-2-0.1c-1.2,0-2.4,0.2-3.5,0.7c-1.1,0.4-2.1,1.1-2.9,2.1s-1.5,2.2-2.1,3.7
					c-0.5,1.5-0.8,3.4-0.8,5.6V906H1038.5z"/>
				<rect x="1068.7" y="869.3" fill="#154A8D" width="7.1" height="36.7"/>
				<path fill="#154A8D" d="M1104.3,907.2c-2.8,0-5.5-0.5-7.8-1.5s-4.3-2.4-6-4.2c-1.6-1.8-2.9-3.9-3.8-6.3c-0.9-2.4-1.4-5-1.4-7.8
					s0.5-5.4,1.4-7.8c0.9-2.4,2.2-4.5,3.8-6.3c1.6-1.8,3.6-3.2,6-4.2c2.3-1,4.9-1.5,7.8-1.5c2.4,0,4.8,0.6,7.2,1.6
					c2.5,1.1,4.5,2.8,6,4.9l0.6,0.8l-5.5,4.2l-0.6-1c-0.7-1.2-1.8-2.2-3.2-3c-1.4-0.8-2.9-1.2-4.5-1.2c-1.8,0-3.4,0.3-4.9,1
					c-1.4,0.7-2.7,1.6-3.7,2.8s-1.8,2.6-2.4,4.2c-0.6,1.6-0.8,3.4-0.8,5.4c0,1.9,0.3,3.7,0.8,5.3c0.6,1.6,1.3,3,2.4,4.2
					c1,1.2,2.2,2.1,3.7,2.8c1.4,0.7,3.1,1,4.9,1c2,0,3.6-0.4,4.9-1.2s2.5-1.8,3.3-3.1l0.6-0.9l5.2,4.2l-0.6,0.8
					c-1.5,2-3.4,3.6-5.6,4.8C1110,906.6,1107.3,907.2,1104.3,907.2z"/>
				<path fill="#154A8D" d="M1132.5,906.9c-1.4,0-2.9-0.2-4.4-0.6c-1.5-0.4-3-1.1-4.2-2c-1.3-0.9-2.4-2.1-3.2-3.6
					c-0.9-1.5-1.3-3.3-1.3-5.4c0-2.9,0.8-5.3,2.3-7s3.5-3,6-3.8c2.4-0.8,5.1-1.3,8.2-1.5c2.7-0.2,5.5-0.3,8.4-0.3v-0.1
					c0-2.7-0.7-4.7-2.1-6s-3.5-1.9-6.3-1.9c-2,0-3.8,0.3-5.5,1s-3.1,1.6-4.3,2.8l-0.8,0.8l-4.2-4.9l0.7-0.7c1.5-1.5,3.6-2.8,6.1-3.8
					s5.3-1.5,8.4-1.5c2,0,3.9,0.3,5.6,0.8c1.8,0.6,3.3,1.4,4.7,2.5c1.4,1.1,2.4,2.6,3.2,4.3c0.8,1.7,1.1,3.7,1.1,6v15.2
					c0,1.3,0,2.7,0.1,4.1c0.1,1.4,0.2,2.6,0.4,3.5l0.2,1.2h-6.6l-0.1-0.8c-0.2-0.9-0.3-1.8-0.4-2.8c0-0.1,0-0.3,0-0.4
					c-1.3,1.5-2.7,2.6-4.3,3.3C1138.2,906.3,1135.5,906.9,1132.5,906.9z M1143.7,888.7c-2.1,0-4.2,0.1-6.3,0.3c-2,0.2-3.9,0.5-5.6,1
					c-1.6,0.5-2.9,1.2-3.9,2c-0.9,0.8-1.3,1.8-1.3,3.2c0,1.1,0.2,1.9,0.6,2.6c0.4,0.7,0.9,1.3,1.6,1.7c0.7,0.5,1.5,0.8,2.3,1
					c0.9,0.2,1.8,0.3,2.7,0.3c1.7,0,3.1-0.3,4.4-0.8s2.3-1.3,3.2-2.3c0.9-1,1.5-2.1,2-3.3c0.5-1.3,0.7-2.6,0.7-4v-1.6h-0.4V888.7z"
					/>
				<path fill="#154A8D" d="M1189.5,906v-20.2c0-1.8-0.1-3.4-0.4-4.8c-0.3-1.3-0.7-2.5-1.4-3.5c-0.6-0.9-1.5-1.6-2.5-2.1
					c-1.1-0.5-2.5-0.8-4.2-0.8c-1.2,0-2.4,0.2-3.6,0.7c-1.1,0.5-2.2,1.2-3.1,2.2s-1.7,2.3-2.2,3.9c-0.6,1.6-0.8,3.5-0.8,5.7V906
					h-7.1v-28c0-0.9,0-2.1-0.1-3.6s-0.1-2.8-0.2-4l-0.1-1.1h6.9l0.1,0.9c0.1,0.9,0.2,2,0.2,3.1c1-1.1,2.2-2.1,3.6-2.9
					c2.4-1.3,5-2,7.6-2c4.7,0,8.4,1.4,10.8,4.3c2.4,2.8,3.6,6.5,3.6,11V906H1189.5z"/>
			</g>
		</g>
		<g>
			<path fill="#C32030" d="M1240.7,836.7c-8.2,0.1-16.6-1.2-14.2,12.3c-4.8-10.2-11.6-15.8-22.9-15.8c9.8-4.8,8.8-11.3,4.1-19.1
				c7.2,5.1,14,10.5,22.8,1.7C1226.6,826.9,1232.5,832.2,1240.7,836.7z"/>
			<path fill="#C32030" d="M1231.7,891.1c0,2.2-0.3,4.2-0.9,6.2s-1.6,3.7-3.1,5.1c-1.5,1.5-3.5,2.6-6.2,3.5c-2.6,0.9-6,1.3-10,1.3
				c-1.1,0-2.4,0-3.7-0.1c-1.3-0.1-2.5-0.2-3.4-0.4l1.1-9.7c0.6,0.1,1.2,0.2,1.9,0.3c0.6,0,1.2,0.1,1.7,0.1c2.4,0,6-0.6,6.9-1.7
				c0.8-1.2,1.2-2.6,1.2-4.4V855h14.6L1231.7,891.1L1231.7,891.1z"/>
			<path fill="#C32030" d="M1283.2,887.2c0,3.1-0.6,5.9-1.7,8.4c-1.2,2.5-2.7,4.6-4.7,6.4c-2,1.7-4.3,3.1-7,4.1
				c-2.6,1-5.5,1.4-8.5,1.4s-5.8-0.5-8.4-1.4c-2.7-1-5-2.3-7-4.1c-2-1.7-3.5-3.9-4.7-6.4s-1.7-5.3-1.7-8.4c0-3.1,0.6-5.9,1.7-8.3
				c1.2-2.5,2.7-4.6,4.7-6.3s4.3-3,7-3.9s5.5-1.4,8.4-1.4c3,0,5.8,0.5,8.5,1.4c2.6,0.9,5,2.2,7,3.9s3.6,3.8,4.7,6.3
				C1282.6,881.3,1283.2,884.1,1283.2,887.2z M1270.7,887.2c0-1.2-0.2-2.4-0.6-3.6c-0.4-1.2-1-2.2-1.8-3.1c-0.8-0.9-1.8-1.6-2.9-2.2
				c-1.2-0.6-2.5-0.8-4-0.8s-2.9,0.3-4,0.8c-1.2,0.6-2.1,1.3-2.9,2.2s-1.3,1.9-1.7,3.1c-0.4,1.2-0.6,2.4-0.6,3.6
				c0,1.2,0.2,2.4,0.6,3.6c0.4,1.2,1,2.2,1.8,3.1c0.8,0.9,1.8,1.7,2.9,2.2c1.2,0.6,2.5,0.8,4,0.8s2.9-0.3,4-0.8
				c1.2-0.6,2.1-1.3,2.9-2.2s1.4-2,1.8-3.1C1270.5,889.6,1270.7,888.4,1270.7,887.2z"/>
			<path fill="#C32030" d="M1333.7,887.8c0,2.5-0.4,4.8-1.2,7.1c-0.8,2.3-2,4.3-3.6,6s-3.5,3.1-5.8,4.1s-4.8,1.6-7.7,1.6
				c-2.6,0-5-0.5-7.3-1.5s-4.1-2.4-5.3-4.1h-0.2v4.6h-11.7V852h12.7v22h0.2c1.1-1.2,2.6-2.3,4.6-3.3s4.4-1.5,7.2-1.5
				c2.8,0,5.3,0.5,7.5,1.5s4.1,2.3,5.7,4s2.8,3.7,3.6,5.9C1333.2,883,1333.7,885.3,1333.7,887.8z M1321.4,887.8
				c0-1.1-0.2-2.2-0.6-3.3s-1-2-1.7-2.9s-1.7-1.5-2.9-2c-1.1-0.5-2.4-0.8-3.9-0.8c-1.4,0-2.7,0.3-3.9,0.8c-1.1,0.5-2.1,1.2-2.9,2.1
				c-0.8,0.9-1.4,1.8-1.9,2.9c-0.4,1.1-0.7,2.2-0.7,3.3s0.2,2.2,0.7,3.3c0.4,1.1,1.1,2.1,1.9,2.9c0.8,0.9,1.8,1.5,2.9,2.1
				c1.1,0.5,2.4,0.8,3.9,0.8s2.8-0.3,3.9-0.8s2.1-1.2,2.9-2.1s1.4-1.8,1.7-2.9C1321.3,890.1,1321.4,888.9,1321.4,887.8z"/>
		</g>
		<g>
			<path fill="#154A8D" d="M1573.4,865.5c0-1.1,0.2-2.1,0.6-3s1-1.7,1.7-2.4s1.5-1.2,2.5-1.6c0.9-0.4,1.9-0.6,3-0.6s2.1,0.2,3,0.6
				c0.9,0.4,1.8,1,2.5,1.6c0.7,0.7,1.3,1.5,1.7,2.4c0.4,0.9,0.6,1.9,0.6,3s-0.2,2.1-0.6,3s-1,1.7-1.7,2.4s-1.5,1.2-2.5,1.6
				c-0.9,0.4-1.9,0.6-3,0.6s-2.1-0.2-3-0.6c-0.9-0.4-1.8-0.9-2.5-1.6c-0.7-0.7-1.3-1.5-1.7-2.4
				C1573.6,867.6,1573.4,866.6,1573.4,865.5z M1574.6,865.5c0,0.9,0.2,1.7,0.5,2.5s0.8,1.5,1.4,2.1s1.3,1.1,2.1,1.4
				c0.8,0.3,1.6,0.5,2.5,0.5s1.7-0.2,2.5-0.5s1.5-0.8,2.1-1.4c0.6-0.6,1-1.3,1.4-2.1c0.3-0.8,0.5-1.6,0.5-2.5s-0.2-1.7-0.5-2.5
				s-0.8-1.5-1.4-2.1s-1.3-1-2.1-1.4c-0.8-0.3-1.6-0.5-2.5-0.5s-1.7,0.2-2.5,0.5s-1.5,0.8-2.1,1.4c-0.6,0.6-1,1.3-1.4,2.1
				C1574.8,863.8,1574.6,864.6,1574.6,865.5z M1578.1,861.1h3c0.4,0,0.8,0,1.2,0.1c0.4,0.1,0.7,0.2,1,0.4s0.5,0.5,0.7,0.8
				s0.3,0.7,0.3,1.2c0,0.6-0.2,1.1-0.5,1.5c-0.4,0.4-0.8,0.7-1.5,0.8l2.3,3.8h-1.9l-2-3.6h-1.1v3.6h-1.6L1578.1,861.1L1578.1,861.1z
				 M1580.9,864.9c0.5,0,0.9-0.1,1.3-0.3s0.6-0.5,0.6-1s-0.2-0.8-0.6-0.9c-0.4-0.2-0.8-0.2-1.2-0.2h-1.4v2.5L1580.9,864.9
				L1580.9,864.9z"/>
			<path fill="#154A8D" d="M1367.1,908c-3.8,0-7.4-0.7-10.6-2.1c-3.2-1.4-6.1-3.3-8.4-5.7s-4.2-5.3-5.5-8.7c-1.3-3.3-2-7-2-10.9
				s0.7-7.6,2-10.9c1.3-3.3,3.2-6.2,5.6-8.7c2.4-2.4,5.2-4.3,8.4-5.7c3.2-1.4,6.7-2.1,10.5-2.1c1.9,0,3.7,0.2,5.5,0.6
				c1.8,0.4,3.5,1,5.1,1.7s3,1.6,4.3,2.6s2.4,2.2,3.3,3.5l0.5,0.8l-5.8,4.3l-0.6-0.9c-0.5-0.7-1.1-1.5-1.9-2.2s-1.7-1.4-2.8-2
				c-1.1-0.6-2.3-1.1-3.6-1.4c-1.3-0.4-2.6-0.5-4.1-0.5c-3,0-5.7,0.6-8.1,1.7c-2.4,1.1-4.4,2.6-6,4.5c-1.7,1.9-2.9,4.1-3.8,6.6
				s-1.3,5.2-1.3,8s0.5,5.5,1.4,8s2.2,4.7,3.8,6.6c1.6,1.9,3.7,3.4,6,4.5c2.4,1.1,5.1,1.7,8,1.7c2.6,0,5.2-0.6,7.6-1.7
				c2.3-1.1,4.3-2.9,5.9-5.3l0.6-0.8l5.5,3.7l-0.5,0.8c-0.9,1.3-1.9,2.6-3.1,3.8s-2.7,2.3-4.3,3.2c-1.6,0.9-3.4,1.6-5.3,2.1
				C1371.6,907.7,1369.4,908,1367.1,908z"/>
			<path fill="#154A8D" d="M1406.5,907.5c-2.7,0-5.2-0.5-7.5-1.5s-4.3-2.4-6-4.2s-3-3.9-3.9-6.2c-1-2.4-1.4-5-1.4-7.8
				s0.5-5.4,1.4-7.8c0.9-2.4,2.2-4.5,3.9-6.3c1.7-1.8,3.6-3.2,5.9-4.1c2.2-1,4.7-1.5,7.3-1.5c2.8,0,5.4,0.5,7.6,1.5s4.1,2.4,5.5,4.1
				c1.5,1.7,2.6,3.7,3.3,5.9c0.7,2.2,1.1,4.6,1.1,7.2v1.1c0,0.4,0,0.9-0.1,1.4l-0.1,0.9h-28.6c0.1,1.3,0.4,2.5,0.9,3.6
				c0.6,1.4,1.4,2.7,2.5,3.8c1,1.1,2.3,1.9,3.7,2.6c1.4,0.6,2.9,0.9,4.6,0.9c2.4,0,4.5-0.6,6.2-1.7c1.8-1.2,3.1-2.5,4-4l0.6-1
				l5.4,4.4l-0.6,0.8c-2.2,2.8-4.6,4.8-7.2,6.1C1412.3,906.9,1409.5,907.5,1406.5,907.5z M1416.5,884.1c-0.3-2.6-1.2-4.9-2.8-6.7
				c-1.8-2-4.2-3-7.6-3c-1.5,0-3,0.3-4.3,0.9c-1.3,0.6-2.5,1.4-3.5,2.4s-1.8,2.2-2.4,3.4c-0.4,0.9-0.7,1.9-0.9,3L1416.5,884.1
				L1416.5,884.1z"/>
			<path fill="#154A8D" d="M1455.1,906.6v-20.7c0-1.8-0.1-3.5-0.4-4.9s-0.7-2.6-1.4-3.6c-0.6-0.9-1.4-1.7-2.5-2.2s-2.4-0.8-4.1-0.8
				c-1.2,0-2.4,0.3-3.5,0.8s-2.1,1.3-3,2.3s-1.6,2.4-2.2,4s-0.8,3.6-0.8,5.9v19.3h-7v-28.8c0-1,0-2.2-0.1-3.7c0-1.5-0.1-2.9-0.2-4.1
				l-0.1-1.1h6.8l0.1,0.9c0.1,0.9,0.2,2,0.2,3.2c1-1.1,2.1-2.1,3.5-2.9c2.4-1.4,4.9-2.1,7.5-2.1c4.7,0,8.3,1.5,10.7,4.4
				c2.3,2.9,3.5,6.7,3.5,11.3v22.8L1455.1,906.6L1455.1,906.6z"/>
			<path fill="#154A8D" d="M1487.7,907c-1,0-2.1-0.1-3.2-0.4c-1.2-0.3-2.3-0.8-3.3-1.6s-1.8-1.9-2.5-3.2c-0.6-1.3-0.9-3.1-0.9-5.2
				v-21.2h-7.2V869h7.2v-10h7v10h9.8v6.3h-9.8v19.8c0,1.2,0.1,2.2,0.3,3c0.2,0.7,0.5,1.2,0.8,1.6c0.3,0.4,0.7,0.6,1.2,0.7
				c0.6,0.2,1.2,0.2,1.8,0.2c0.6,0,1.3-0.1,1.9-0.3c0.7-0.2,1.4-0.4,2-0.8l1.4-0.7l0.3,6.8l-0.7,0.3c-0.9,0.4-1.9,0.7-3,0.9
				C1490,907,1488.9,907,1487.7,907z"/>
			<path fill="#154A8D" d="M1520.2,907.5c-2.7,0-5.2-0.5-7.5-1.5s-4.3-2.4-6-4.2s-3-3.9-3.9-6.2c-1-2.4-1.4-5-1.4-7.8
				s0.5-5.4,1.4-7.8c0.9-2.4,2.2-4.5,3.9-6.3c1.7-1.8,3.6-3.2,5.9-4.1c2.2-1,4.7-1.5,7.3-1.5c2.8,0,5.4,0.5,7.6,1.5s4.1,2.4,5.5,4.1
				c1.5,1.7,2.6,3.7,3.3,5.9c0.7,2.2,1.1,4.6,1.1,7.2v1.1c0,0.4,0,0.9-0.1,1.4l-0.1,0.9h-28.6c0.1,1.3,0.4,2.5,0.9,3.6
				c0.6,1.4,1.4,2.7,2.5,3.8c1,1.1,2.3,1.9,3.7,2.6c1.4,0.6,2.9,0.9,4.6,0.9c2.4,0,4.5-0.6,6.2-1.7c1.8-1.2,3.1-2.5,4-4l0.6-1
				l5.4,4.4l-0.6,0.8c-2.2,2.8-4.6,4.8-7.2,6.1C1526,906.9,1523.2,907.5,1520.2,907.5z M1530.1,884.1c-0.3-2.6-1.2-4.9-2.8-6.7
				c-1.8-2-4.2-3-7.6-3c-1.5,0-3,0.3-4.3,0.9c-1.3,0.6-2.5,1.4-3.5,2.4s-1.8,2.2-2.4,3.4c-0.4,0.9-0.7,1.9-0.9,3L1530.1,884.1
				L1530.1,884.1z"/>
			<path fill="#154A8D" d="M1546.1,906.6v-28.8c0-1,0-2.2-0.1-3.7c0-1.5-0.1-2.9-0.2-4.1l-0.1-1.1h6.8l0.1,0.9
				c0.1,0.9,0.2,2,0.2,3.1c0.9-1.1,1.9-2,3.1-2.8c2.1-1.4,4.6-2.1,7.2-2.1c0.7,0,1.3,0,1.8,0.1c0.6,0.1,1.2,0.2,1.8,0.3l0.8,0.2
				l-0.9,7l-1.2-0.4c-0.2-0.1-0.5-0.1-1.3-0.3c-0.6-0.1-1.3-0.1-1.9-0.1c-1.2,0-2.4,0.2-3.5,0.7c-1.1,0.4-2,1.2-2.8,2.1
				c-0.8,1-1.5,2.3-2,3.8c-0.5,1.6-0.8,3.5-0.8,5.8v19.2h-7V906.6z"/>
		</g>
		<g>
			<path fill="#959697" d="M1617.6,910.5v-20.4c0-1.8-0.1-3.4-0.4-4.8c-0.3-1.4-0.7-2.5-1.4-3.5c-0.6-0.9-1.5-1.6-2.5-2.2
				c-1.1-0.5-2.5-0.8-4.2-0.8c-1.2,0-2.4,0.2-3.5,0.7s-2.2,1.3-3.1,2.3s-1.7,2.3-2.2,3.9c-0.6,1.6-0.8,3.6-0.8,5.8v19h-7.1v-28.4
				c0-0.9,0-2.2-0.1-3.6c-0.1-1.5-0.1-2.8-0.2-4l-0.1-1.1h6.9l0.1,0.9c0.1,1,0.2,2,0.2,3.1c1-1.1,2.2-2.1,3.6-2.9c2.4-1.4,5-2,7.6-2
				c4.7,0,8.4,1.5,10.8,4.3s3.6,6.6,3.6,11.1v22.5h-7.2V910.5z"/>
			<path fill="#959697" d="M1650.5,911.3c-2.7,0-5.3-0.5-7.6-1.5c-2.3-1-4.4-2.4-6.1-4.1c-1.7-1.7-3-3.8-4-6.2s-1.5-5-1.5-7.8
				s0.5-5.4,1.4-7.8c0.9-2.4,2.3-4.5,4-6.2s3.7-3.1,5.9-4.1c2.3-1,4.7-1.5,7.4-1.5c2.9,0,5.5,0.5,7.7,1.5s4.1,2.3,5.6,4
				s2.6,3.7,3.4,5.9s1.1,4.6,1.1,7.1v1.1c0,0.4,0,0.9-0.1,1.4l-0.1,0.9h-28.9c0.1,1.3,0.4,2.5,0.9,3.6c0.6,1.4,1.4,2.7,2.5,3.8
				s2.3,1.9,3.7,2.5c1.4,0.6,3,0.9,4.6,0.9c2.4,0,4.6-0.6,6.3-1.7c1.8-1.1,3.2-2.5,4.1-3.9l0.6-0.9l5.5,4.3l-0.6,0.8
				c-2.2,2.8-4.6,4.8-7.3,6C1656.4,910.7,1653.6,911.3,1650.5,911.3z M1660.6,888.1c-0.3-2.6-1.3-4.8-2.8-6.6c-1.8-2-4.3-3-7.7-3
				c-1.6,0-3,0.3-4.3,0.9c-1.3,0.6-2.5,1.4-3.5,2.4s-1.8,2.1-2.4,3.4c-0.4,0.9-0.7,1.9-0.9,2.9L1660.6,888.1L1660.6,888.1z"/>
			<path fill="#959697" d="M1687.7,910.9c-1,0-2.1-0.1-3.2-0.4c-1.2-0.3-2.3-0.8-3.3-1.5c-1-0.8-1.9-1.8-2.5-3.1s-1-3-1-5v-20h-7.3
				v-6.1h7.3v-9.5h7.1v9.5h9.9v6.1h-9.9v18.7c0,1.1,0.1,2.1,0.3,2.8c0.2,0.6,0.5,1.1,0.8,1.5c0.4,0.3,0.8,0.6,1.2,0.7
				c0.6,0.1,1.2,0.2,1.9,0.2c0.6,0,1.3-0.1,2-0.3s1.4-0.4,2-0.7l1.4-0.7l0.3,6.5l-0.7,0.3c-1,0.4-2,0.6-3,0.8
				C1690,910.8,1688.9,910.9,1687.7,910.9z"/>
			<polygon fill="#959697" points="1734.1,910.5 1725,885 1715.9,910.5 1708.7,910.5 1696.4,874.8 1704.3,874.8 1712.5,900.3 
				1721.7,874.8 1728.3,874.8 1737.7,900.3 1745.9,874.8 1753.6,874.8 1741.3,910.5 			"/>
			<path fill="#959697" d="M1775,910.3c-2.6,0-5-0.5-7.3-1.4c-2.2-0.9-4.2-2.3-5.8-3.9c-1.6-1.7-2.9-3.7-3.7-5.9
				c-0.9-2.3-1.3-4.8-1.3-7.4s0.5-5.2,1.3-7.4c0.9-2.3,2.2-4.3,3.8-5.9c1.6-1.7,3.5-3,5.8-3.9c2.2-0.9,4.7-1.4,7.3-1.4
				c2.6,0,5.1,0.5,7.3,1.4c2.2,0.9,4.2,2.3,5.8,3.9c1.6,1.7,2.9,3.7,3.7,5.9c0.9,2.3,1.3,4.8,1.3,7.4c0,2.7-0.5,5.2-1.3,7.4
				c-0.9,2.3-2.2,4.3-3.7,5.9c-1.6,1.7-3.5,3-5.8,3.9C1780.1,909.9,1777.6,910.3,1775,910.3z M1775,879c-1.7,0-3.3,0.3-4.6,1
				c-1.4,0.7-2.5,1.6-3.5,2.7c-1,1.1-1.7,2.5-2.3,4c-0.5,1.5-0.8,3.2-0.8,5s0.3,3.4,0.8,5c0.5,1.5,1.3,2.9,2.3,4s2.1,2,3.5,2.6
				c1.3,0.6,2.9,1,4.6,1s3.3-0.3,4.7-1c1.4-0.6,2.6-1.5,3.5-2.6c1-1.1,1.7-2.5,2.3-4c0.5-1.5,0.8-3.2,0.8-5s-0.3-3.4-0.8-5
				c-0.5-1.5-1.3-2.9-2.3-4s-2.1-2-3.5-2.7C1778.2,879.4,1776.7,879,1775,879z"/>
			<path fill="#959697" d="M1802.4,910.5v-28c0-0.9,0-2.1-0.1-3.6s-0.1-2.8-0.2-4l-0.1-1.1h6.9l0.1,0.9c0.1,0.9,0.2,1.9,0.2,3
				c0.9-1.1,2-2,3.2-2.8c2.2-1.4,4.6-2,7.3-2c0.7,0,1.3,0,1.9,0.1s1.2,0.2,1.8,0.3l0.9,0.2l-1,6.9l-1.1-0.4
				c-0.2-0.1-0.5-0.1-1.3-0.3c-0.7-0.1-1.3-0.1-2-0.1c-1.2,0-2.4,0.2-3.5,0.7c-1.1,0.4-2.1,1.1-2.9,2.1s-1.5,2.2-2.1,3.7
				c-0.5,1.5-0.8,3.4-0.8,5.6v18.7L1802.4,910.5L1802.4,910.5z"/>
			<polygon fill="#959697" points="1851.8,910.5 1836.3,893.4 1836.3,910.5 1829.5,910.5 1829.5,856.7 1836.3,856.7 1836.3,887.9 
				1850.3,873.3 1860.1,873.3 1842.4,890.4 1861.7,910.5 			"/>
		</g>
	</g>
	<g>
		<g>
			<path d="M747.1,718.9l-5.5-14.5h-24.5l-5.4,14.5H704l22.4-57.2h6.3l22.3,57.2H747.1z M738.9,697.3l-9.6-25.5l-9.6,25.5H738.9z"/>
			<path d="M783.5,718.9v-19.6c0-1.7-0.1-3.3-0.4-4.6c-0.2-1.3-0.7-2.4-1.3-3.3c-0.6-0.9-1.3-1.6-2.3-2.1s-2.2-0.7-3.7-0.7
				c-1.1,0-2.1,0.2-3.1,0.7s-1.9,1.2-2.7,2.1c-0.8,1-1.5,2.2-2,3.8c-0.5,1.5-0.8,3.4-0.8,5.5v18.2h-6.6v-27.2c0-0.9,0-2.1-0.1-3.5
				c0-1.4-0.1-2.7-0.2-3.8l-0.1-1.1h6.4l0.1,0.9c0.1,0.8,0.1,1.8,0.2,2.8c0.9-1,1.9-1.9,3.1-2.6c2.2-1.3,4.5-2,7-2
				c4.3,0,7.6,1.4,9.8,4.2c2.1,2.7,3.2,6.3,3.2,10.7v21.6L783.5,718.9L783.5,718.9z"/>
			<rect x="821.5" y="659.2" width="7.1" height="59.7"/>
			<rect x="839.8" y="655.3" width="6.8" height="63.6"/>
			<rect x="856.6" y="655.3" width="6.8" height="63.6"/>
			<path d="M874.4,718.9v-36.7h6.7v36.7H874.4z M877.8,671.8c-1.1,0-2.1-0.5-3-1.4s-1.3-2-1.3-3.4s0.4-2.5,1.3-3.4
				c0.9-0.9,1.9-1.4,3-1.4s2.1,0.5,3,1.4s1.3,2,1.3,3.4s-0.4,2.5-1.3,3.4S878.9,671.8,877.8,671.8z"/>
			<path d="M913.8,718.9v-19.6c0-1.7-0.1-3.3-0.4-4.6c-0.3-1.3-0.7-2.4-1.3-3.3c-0.6-0.9-1.4-1.6-2.4-2.1s-2.3-0.8-3.9-0.8
				c-1.1,0-2.2,0.2-3.3,0.7s-2,1.2-2.9,2.1c-0.9,1-1.5,2.2-2.1,3.8c-0.5,1.5-0.8,3.4-0.8,5.5v18.2H890v-27.2c0-0.9,0-2.1-0.1-3.5
				c0-1.4-0.1-2.7-0.2-3.8l-0.1-1.1h6.6l0.1,0.9c0.1,0.9,0.2,1.8,0.2,2.9c0.9-1,2-1.9,3.3-2.7c2.3-1.3,4.7-2,7.2-2
				c4.5,0,7.9,1.4,10.2,4.2c2.2,2.7,3.4,6.3,3.4,10.7v21.6L913.8,718.9L913.8,718.9z"/>
			<path d="M947.3,719.9c-2.7,0-5.2-0.5-7.5-1.4s-4.3-2.3-5.9-3.9c-1.6-1.7-2.9-3.7-3.9-5.9c-0.9-2.3-1.4-4.8-1.4-7.4
				s0.5-5.2,1.4-7.4c0.9-2.3,2.2-4.3,3.9-5.9c1.6-1.7,3.6-3,5.9-3.9c2.3-0.9,4.8-1.4,7.5-1.4s5.2,0.5,7.5,1.4s4.3,2.3,5.9,3.9
				c1.6,1.7,2.9,3.7,3.9,5.9c0.9,2.3,1.4,4.8,1.4,7.4s-0.5,5.2-1.4,7.4c-0.9,2.3-2.2,4.3-3.9,5.9c-1.6,1.7-3.6,3-5.9,3.9
				C952.5,719.4,950,719.9,947.3,719.9z M947.3,688.5c-1.8,0-3.4,0.3-4.8,1c-1.4,0.7-2.6,1.6-3.6,2.7c-1,1.1-1.8,2.5-2.3,4
				s-0.8,3.2-0.8,5s0.3,3.4,0.8,5c0.5,1.5,1.3,2.9,2.3,4s2.2,2,3.6,2.6c1.4,0.6,3,1,4.8,1s3.4-0.3,4.8-1c1.4-0.6,2.6-1.5,3.6-2.6
				s1.8-2.5,2.3-4s0.8-3.2,0.8-5s-0.3-3.4-0.8-5c-0.5-1.5-1.3-2.9-2.3-4s-2.2-2-3.6-2.7C950.7,688.9,949,688.5,947.3,688.5z"/>
			<path d="M974.3,718.9v-37.8h6.8v37.8H974.3z M977.7,671.7c-1.1,0-2.1-0.5-3-1.4s-1.4-2-1.4-3.4s0.5-2.5,1.4-3.4s1.9-1.4,3-1.4
				s2.1,0.5,3,1.4s1.4,2.1,1.4,3.4c0,1.4-0.5,2.5-1.4,3.4C979.9,671.2,978.9,671.7,977.7,671.7z"/>
			<path d="M1001.5,719.9c-2.3,0-4.5-0.6-6.6-1.8c-2.2-1.2-3.9-3-5.3-5.5l-0.4-0.7l4.8-4.4l0.6,1.2c0.6,1.4,1.6,2.5,2.9,3.5
				c1.2,0.9,2.5,1.4,4,1.4c0.8,0,1.6-0.1,2.3-0.3c0.6-0.2,1.2-0.4,1.7-0.8c0.5-0.4,0.9-0.9,1.2-1.5s0.4-1.4,0.4-2.4
				c0-1.5-0.5-2.5-1.7-3.3c-1.3-0.9-3.3-1.7-5.9-2.4c-0.9-0.3-1.8-0.6-2.7-1c-1-0.4-2-1-2.9-1.8s-1.6-1.8-2.2-3
				c-0.6-1.2-0.9-2.7-0.9-4.5c0-1.9,0.3-3.6,0.9-5c0.6-1.4,1.5-2.5,2.5-3.5c1-0.9,2.2-1.6,3.5-2s2.6-0.6,4-0.6
				c2.1,0,4.2,0.6,6.2,1.8s3.5,2.9,4.5,5l0.3,0.7l-4.7,4.4l-0.6-1.3c-0.5-1.3-1.3-2.3-2.4-3.1c-1-0.8-2.2-1.2-3.5-1.2
				c-0.6,0-1.3,0.1-1.9,0.3c-0.6,0.2-1.1,0.4-1.6,0.8c-0.4,0.4-0.8,0.8-1.1,1.4c-0.3,0.5-0.4,1.2-0.4,2c0,1.3,0.4,2.3,1.2,3
				c1,0.8,2.5,1.4,4.7,2c3.5,0.9,6.1,2.2,7.8,3.9c1.8,1.8,2.6,4.2,2.6,7.2c0,2.1-0.3,3.9-1,5.4s-1.6,2.7-2.7,3.7
				c-1.1,1-2.4,1.6-3.7,2.1C1004.2,719.7,1002.9,719.9,1001.5,719.9z"/>
		</g>
		<g>
			<path d="M1124.9,719.1h-20.6L1092,678h-0.3l-12,41.1h-20.6l-21.5-66h22.1l10.8,41.8h0.4l11.1-41.8h20.6l11.5,41.8h0.3l10.9-41.8
				h21.3L1124.9,719.1z"/>
			<path d="M1224.3,685.8c0,5.4-1,10.3-2.9,14.6c-1.9,4.4-4.6,8.1-8,11.1s-7.2,5.4-11.7,7.1c-4.4,1.7-9.1,2.5-14.2,2.5
				c-5,0-9.7-0.8-14.1-2.5c-4.5-1.7-8.4-4-11.7-7.1c-3.3-3-5.9-6.8-7.9-11.1c-1.9-4.4-2.9-9.3-2.9-14.6c0-5.4,1-10.2,2.9-14.6
				c1.9-4.3,4.6-8,7.9-11s7.2-5.3,11.7-6.9c4.5-1.6,9.2-2.4,14.1-2.4c5,0,9.8,0.8,14.2,2.4c4.4,1.6,8.3,3.9,11.7,6.9
				c3.4,3,6,6.7,8,11C1223.3,675.5,1224.3,680.4,1224.3,685.8z M1203.4,685.8c0-2.1-0.4-4.2-1.1-6.2s-1.7-3.8-3-5.4
				c-1.3-1.5-3-2.8-4.9-3.8s-4.2-1.5-6.8-1.5c-2.6,0-4.8,0.5-6.8,1.5c-1.9,1-3.6,2.2-4.8,3.8c-1.3,1.5-2.3,3.3-2.9,5.4
				c-0.7,2-1,4.1-1,6.2c0,2.1,0.3,4.2,1,6.2s1.7,3.9,3,5.5s3,2.9,4.9,3.9s4.2,1.5,6.8,1.5c2.6,0,4.8-0.5,6.8-1.5
				c1.9-1,3.6-2.3,4.9-3.9c1.3-1.6,2.3-3.5,3-5.5C1203,690,1203.4,687.9,1203.4,685.8z"/>
			<path d="M1285.3,674.5c-1.6-1.4-6.2-4-7.1-4.1s-1.8-0.1-2.7-0.1c-2.9,0-5.4,0.5-7.4,1.6s-3.6,2.3-4.8,3.8
				c-1.2,1.5-2.1,3.1-2.6,4.9s-0.8,3.3-0.8,4.6V719h-21.7v-65.9h20.9v9.5h0.3c1.7-3.4,4.1-6.1,7.2-8.3c3.1-2.1,6.7-3.2,10.7-3.2
				c0.9,0,3.5,0.3,4.6,0.5c5.3,1.2,9.6,7.5,9.6,7.5L1285.3,674.5z"/>
			<path d="M1368.6,719.1h-26.9l-21.6-31.7h-0.4v31.7h-21.9v-96.2h21.9v57h0.4l21.1-26.8h26.4l-25.4,29.8L1368.6,719.1z"/>
		</g>
		<g>
			<path d="M1453.1,701.6h0.3v-77.4h10.6V715h-13.2l-60.6-78.1h-0.3V715h-10.6v-90.8h13.2L1453.1,701.6z"/>
			<path d="M1535.5,683.3c0,0.6,0,1.2,0,1.9s0,1.4-0.1,2.2h-48.9c0.1,3,0.7,5.8,1.8,8.5c1.1,2.7,2.6,5,4.5,6.9
				c1.9,2,4.2,3.5,6.8,4.7c2.6,1.2,5.4,1.7,8.5,1.7c4.5,0,8.3-1,11.5-3.1s5.7-4.5,7.4-7.2l6.4,5.1c-3.5,4.5-7.4,7.8-11.7,9.8
				c-4.2,2-8.8,3-13.7,3c-4.4,0-8.4-0.8-12.2-2.4c-3.7-1.6-7-3.8-9.6-6.6c-2.7-2.8-4.8-6.2-6.4-10s-2.3-8-2.3-12.6
				c0-4.5,0.8-8.7,2.3-12.6c1.5-3.8,3.6-7.2,6.3-10c2.7-2.8,5.8-5,9.5-6.6c3.6-1.6,7.5-2.4,11.7-2.4c4.6,0,8.7,0.8,12.2,2.4
				c3.5,1.6,6.5,3.7,8.8,6.4c2.4,2.7,4.1,5.8,5.4,9.4C1534.9,675.3,1535.5,679.2,1535.5,683.3z M1526.8,680.4
				c-0.3-5.6-2-10.3-5.4-14.1c-3.3-3.7-8.1-5.6-14.2-5.6c-2.9,0-5.5,0.5-7.9,1.6s-4.6,2.5-6.4,4.4c-1.9,1.8-3.3,3.9-4.4,6.3
				c-1.1,2.4-1.7,4.8-1.9,7.4L1526.8,680.4L1526.8,680.4z"/>
			<path d="M1579.5,663h-17.1v36c0,2.3,0.2,4.2,0.6,5.7s1.1,2.7,1.9,3.5s1.8,1.4,2.9,1.7s2.3,0.5,3.6,0.5c1.2,0,2.5-0.2,3.8-0.5
				c1.3-0.4,2.6-0.8,3.8-1.4l0.4,7.8c-1.6,0.6-3.2,1.1-4.9,1.4c-1.7,0.3-3.5,0.5-5.5,0.5c-1.6,0-3.4-0.2-5.2-0.7
				c-1.8-0.4-3.5-1.3-5.1-2.5s-2.8-2.9-3.8-5s-1.5-4.9-1.5-8.3V663H1541v-7.5h12.6v-17.4h8.8v17.4h17.1V663z"/>
			<path d="M1588.1,649.4c0-1.5,0.3-2.9,0.8-4.2c0.6-1.3,1.3-2.4,2.3-3.4s2.1-1.7,3.4-2.3s2.7-0.8,4.2-0.8s2.9,0.3,4.2,0.8
				c1.3,0.6,2.4,1.3,3.4,2.3s1.7,2.1,2.3,3.4c0.6,1.3,0.8,2.7,0.8,4.2s-0.3,2.9-0.8,4.2c-0.6,1.3-1.3,2.4-2.3,3.4s-2.1,1.7-3.4,2.3
				s-2.7,0.8-4.2,0.8s-2.9-0.3-4.2-0.8c-1.3-0.5-2.4-1.3-3.4-2.3s-1.7-2.1-2.3-3.4C1588.4,652.2,1588.1,650.9,1588.1,649.4z
				 M1589.8,649.4c0,1.2,0.2,2.4,0.7,3.5s1.1,2.1,1.9,2.9c0.8,0.8,1.8,1.5,2.9,2s2.3,0.7,3.5,0.7c1.3,0,2.4-0.2,3.5-0.7
				s2.1-1.1,2.9-2c0.8-0.8,1.5-1.8,1.9-2.9c0.5-1.1,0.7-2.3,0.7-3.5c0-1.3-0.2-2.4-0.7-3.5s-1.1-2.1-1.9-2.9
				c-0.8-0.8-1.8-1.5-2.9-1.9c-1.1-0.5-2.3-0.7-3.5-0.7c-1.3,0-2.4,0.2-3.5,0.7s-2.1,1.1-2.9,1.9c-0.8,0.8-1.5,1.8-1.9,2.9
				C1590,646.9,1589.8,648.1,1589.8,649.4z M1594.7,643.3h4.2c0.6,0,1.1,0.1,1.7,0.2c0.5,0.1,1,0.3,1.4,0.6s0.8,0.6,1,1.1
				c0.3,0.4,0.4,1,0.4,1.7c0,0.9-0.3,1.6-0.8,2.1c-0.5,0.6-1.2,0.9-2,1.1l3.3,5.3h-2.6l-2.8-5h-1.6v5h-2.2V643.3z M1598.6,648.6
				c0.6,0,1.2-0.1,1.8-0.4c0.6-0.2,0.8-0.7,0.8-1.4s-0.3-1.1-0.8-1.3s-1.1-0.3-1.6-0.3h-2v3.4H1598.6z"/>
		</g>
		<path d="M1292.4,673.7"/>
		<g>
			<path d="M1655.6,719c-3.9,0-7.6-0.7-11-2.2s-6.3-3.5-8.7-6.1c-2.4-2.6-4.3-5.7-5.7-9.2c-1.4-3.5-2-7.4-2-11.6
				c0-4.2,0.7-8.1,2.1-11.6s3.3-6.6,5.8-9.2c2.5-2.6,5.4-4.6,8.7-6.1c3.3-1.5,7-2.2,10.9-2.2c1.9,0,3.8,0.2,5.7,0.6
				c1.9,0.4,3.6,1,5.3,1.8c1.6,0.8,3.2,1.7,4.5,2.8c1.4,1.1,2.5,2.4,3.4,3.7l0.5,0.8l-5.9,4.6l-0.6-0.9c-0.5-0.8-1.1-1.6-2-2.4
				c-0.8-0.8-1.8-1.5-2.9-2.1s-2.4-1.1-3.7-1.5c-1.3-0.4-2.8-0.6-4.3-0.6c-3.1,0-6,0.6-8.4,1.8c-2.5,1.2-4.6,2.8-6.3,4.8
				c-1.7,2-3.1,4.4-4,7.1c-0.9,2.7-1.4,5.6-1.4,8.5c0,3,0.5,5.9,1.4,8.5c0.9,2.7,2.3,5.1,4,7.1s3.8,3.6,6.3,4.8s5.3,1.8,8.4,1.8
				c2.8,0,5.4-0.6,7.9-1.8c2.4-1.2,4.5-3.1,6.2-5.7l0.6-0.9l5.7,3.8l-0.5,0.8c-0.9,1.4-2,2.8-3.3,4c-1.3,1.3-2.8,2.4-4.4,3.3
				c-1.7,1-3.5,1.7-5.5,2.3C1660.2,718.7,1658,719,1655.6,719z"/>
			<path d="M1694.6,719.2c-2.4,0-4.8-0.5-6.9-1.4s-3.9-2.3-5.4-4s-2.7-3.7-3.6-6s-1.3-4.8-1.3-7.5s0.4-5.2,1.3-7.4
				c0.8-2.3,2-4.3,3.5-6s3.3-3,5.3-4s4.3-1.4,6.6-1.4c2.6,0,4.9,0.5,6.9,1.4c2,1,3.7,2.3,5,3.9c1.3,1.6,2.3,3.5,3,5.7
				c0.7,2.1,1,4.4,1,6.8v1.1c0,0.4,0,0.8-0.1,1.3l-0.1,0.9h-25.7c0.1,1.2,0.4,2.3,0.8,3.4c0.5,1.4,1.3,2.6,2.2,3.6
				c0.9,1,2,1.8,3.3,2.4c1.2,0.6,2.6,0.9,4,0.9c2.1,0,4-0.5,5.5-1.6c1.6-1.1,2.8-2.4,3.6-3.8l0.6-1l5,4.3l-0.5,0.8
				c-2,2.7-4.2,4.6-6.5,5.8C1699.9,718.6,1697.3,719.2,1694.6,719.2z M1703.4,696.7c-0.3-2.5-1.1-4.6-2.5-6.3
				c-1.6-1.9-3.8-2.8-6.7-2.8c-1.4,0-2.6,0.3-3.8,0.8c-1.2,0.5-2.2,1.3-3.1,2.2c-0.9,1-1.6,2-2.1,3.3c-0.4,0.9-0.7,1.8-0.8,2.8
				H1703.4z"/>
			<path d="M1739.4,718.3v-19.8c0-1.7-0.1-3.3-0.4-4.7c-0.2-1.3-0.7-2.5-1.2-3.4c-0.6-0.9-1.3-1.6-2.2-2.1c-0.9-0.5-2.2-0.8-3.6-0.8
				c-1,0-2.1,0.2-3.1,0.7s-1.9,1.2-2.7,2.2c-0.8,1-1.5,2.3-2,3.8c-0.5,1.6-0.8,3.4-0.8,5.6v18.4h-6.5v-27.4c0-0.9,0-2.1-0.1-3.5
				c0-1.4-0.1-2.7-0.2-3.9l-0.1-1.1h6.3l0.1,0.9c0.1,0.8,0.1,1.8,0.2,2.8c0.8-1,1.8-1.8,3-2.6c2.2-1.3,4.5-2,6.9-2
				c4.3,0,7.5,1.4,9.7,4.2c2.1,2.7,3.2,6.3,3.2,10.8v21.8L1739.4,718.3L1739.4,718.3z"/>
			<path d="M1788.8,719.6c-2.4,0-4.8-0.5-6.9-1.4s-3.9-2.3-5.4-4s-2.7-3.7-3.6-6s-1.3-4.8-1.3-7.5s0.4-5.2,1.3-7.4
				c0.8-2.3,2-4.3,3.5-6s3.3-3,5.3-4s4.3-1.4,6.6-1.4c2.6,0,4.9,0.5,6.9,1.4c2,1,3.7,2.3,5,3.9c1.3,1.6,2.3,3.5,3,5.7
				c0.7,2.1,1,4.4,1,6.8v1.1c0,0.4,0,0.8-0.1,1.3l-0.1,0.9h-25.7c0.1,1.2,0.4,2.3,0.8,3.4c0.5,1.4,1.3,2.6,2.2,3.6
				c0.9,1,2,1.8,3.3,2.4c1.2,0.6,2.6,0.9,4,0.9c2.1,0,4-0.5,5.5-1.6c1.6-1.1,2.8-2.4,3.6-3.8l0.6-1l5,4.3l-0.5,0.8
				c-2,2.7-4.2,4.6-6.5,5.8C1794.2,719,1791.6,719.6,1788.8,719.6z M1797.7,697.2c-0.3-2.5-1.1-4.6-2.5-6.3
				c-1.6-1.9-3.8-2.8-6.7-2.8c-1.4,0-2.6,0.3-3.8,0.8c-1.2,0.5-2.2,1.3-3.1,2.2c-0.9,1-1.6,2-2.1,3.3c-0.4,0.9-0.7,1.8-0.8,2.8
				H1797.7z"/>
			<path d="M1810.7,718.7v-27.4c0-0.9,0-2.1-0.1-3.5c0-1.4-0.1-2.7-0.2-3.9l-0.1-1.1h6.7l0.1,0.9c0.1,0.9,0.2,1.9,0.2,2.9
				c0.9-1,1.9-1.9,3.1-2.7c2.1-1.3,4.5-2,7.1-2c0.6,0,1.3,0,1.8,0.1c0.6,0.1,1.2,0.2,1.7,0.3l0.9,0.2l-0.9,6.8l-1.1-0.4
				c-0.2-0.1-0.5-0.1-1.3-0.2c-0.6-0.1-1.3-0.1-1.9-0.1c-1.2,0-2.3,0.2-3.4,0.7c-1.1,0.4-2,1.1-2.8,2s-1.5,2.2-2,3.6
				c-0.5,1.5-0.8,3.3-0.8,5.5v18.3L1810.7,718.7L1810.7,718.7z"/>
			<polygon points="1756.4,717.9 1756.4,686.5 1749.9,686.5 1749.9,680.4 1756.4,680.4 1756.4,670.8 1762.9,670.8 1762.9,680.4 
				1771.7,680.4 1771.7,686.5 1762.9,686.5 1762.9,717.9 			"/>
		</g>
	</g>
</g>
</svg>
