<?xml version="1.0" encoding="utf-8"?>
<!-- Generator: Adobe Illustrator 23.1.1, SVG Export Plug-In . SVG Version: 6.00 Build 0)  -->
<svg version="1.1" id="Layer_1" xmlns="http://www.w3.org/2000/svg" xmlns:xlink="http://www.w3.org/1999/xlink" x="0px" y="0px"
	 viewBox="0 0 24 24" style="enable-background:new 0 0 24 24;" xml:space="preserve">
<style type="text/css">
	.st0{fill:none;}
	.st1{fill:none;stroke:#0F3B63;stroke-width:0.75;stroke-miterlimit:10;}
</style>
<path class="st0" d="M0,0h24v24H0V0z"/>
<circle class="st1" cx="14.8" cy="16.8" r="2.5"/>
<path class="st1" d="M14.8,19.3c-0.4,0-0.8-0.1-1.2-0.3v3.5l1.2-1.2l1.2,1.2V19C15.6,19.2,15.2,19.3,14.8,19.3z"/>
<path class="st1" d="M16.6,20h1.9c0.4,0,0.8-0.3,0.8-0.8V1.8C19.3,1.4,19,1,18.6,1H5.4C5,1,4.7,1.4,4.7,1.8v17.4
	C4.7,19.6,5,20,5.4,20h7.4"/>
<line class="st1" x1="7.7" y1="3.9" x2="16.3" y2="3.9"/>
<line class="st1" x1="7.7" y1="5.4" x2="14.8" y2="5.4"/>
<line class="st1" x1="7.7" y1="6.8" x2="16.3" y2="6.8"/>
<line class="st1" x1="7.7" y1="8.3" x2="12.5" y2="8.3"/>
<line class="st1" x1="7.7" y1="12.5" x2="12.1" y2="12.5"/>
</svg>
