<?xml version="1.0" encoding="utf-8"?>
<svg xmlns="http://www.w3.org/2000/svg" xmlns:xlink="http://www.w3.org/1999/xlink" x="0px" y="0px"
  viewBox="0 0 150 150" height="150" width="150" enable-background="new 0 0 150 150" xml:space="preserve">
  <rect x="2.5" y="2.5" fill="#E6E6E6" width="145" height="145"/>
  <path fill="#B3B3B3" d="M145,5v140H5V5H145 M150,0H0v150h150V0L150,0z"/>
  <path fill="#CCCCCC" d="M39.3,146.5c-0.7-4.5-1.1-9.2-1.1-13.9c0-32.3,16.5-58.5,36.8-58.5s36.8,26.2,36.8,58.5
    c0,4.7-0.4,9.3-1.1,13.9H39.3z"/>
    <path fill="#B3B3B3" d="M75,75.6c9.2,0,17.9,5.7,24.5,16.2c6.9,10.9,10.7,25.4,10.7,40.8c0,4.2-0.3,8.3-0.8,12.4H40.6
      c-0.6-4.1-0.8-8.2-0.8-12.4c0-15.5,3.8-30,10.7-40.8C57.1,81.4,65.8,75.6,75,75.6 M75,72.6c-21.1,0-38.3,26.9-38.3,60
      c0,5.3,0.4,10.5,1.3,15.4h74c0.8-4.9,1.3-10.1,1.3-15.4C113.3,99.5,96.1,72.6,75,72.6L75,72.6z"/>
  <path fill="#CCCCCC" d="M75,71.4c-13.1,0-23.8-10.7-23.8-23.8S61.9,23.8,75,23.8c13.1,0,23.8,10.7,23.8,23.8S88.1,71.4,75,71.4z"/>
  <path fill="#B3B3B3" d="M75,25.7c12.1,0,21.9,9.8,21.9,21.9S87.1,69.5,75,69.5s-21.9-9.8-21.9-21.9S62.9,25.7,75,25.7 M75,22
    c-14.2,0-25.7,11.5-25.7,25.7S60.8,73.3,75,73.3s25.7-11.5,25.7-25.7S89.2,22,75,22L75,22z"/>
</svg>
