<?xml version="1.0" encoding="utf-8"?>
<!-- Generator: Adobe Illustrator 23.1.1, SVG Export Plug-In . SVG Version: 6.00 Build 0)  -->
<svg version="1.1" id="Layer_2" xmlns="http://www.w3.org/2000/svg" xmlns:xlink="http://www.w3.org/1999/xlink" x="0px" y="0px"
	 viewBox="0 0 72 72" style="enable-background:new 0 0 72 72;" xml:space="preserve">
<style type="text/css">
	.st0{fill:#003057;}
</style>
<g>
	<path class="st0" d="M66.7,61.2c0,2.4-2.1,4.6-4.3,4.6c-17.9,0-34.9,0-52.8,0c-2.3,0-4.4-2.6-4.4-4.6c0.1-11.4,0-21.9,0-33.3v-4.2
		h61.5c0,0.3,0,3.8,0,4C66.7,39.2,66.7,49.8,66.7,61.2 M70.5,19c0-7.9-5.5-7.1-9.8-7.1v-0.6c0-1.9,0-3.8,0-5.6
		c0-2.2-1.9-3.9-4.4-3.9c-2.6,0-4.6,1.6-4.6,3.8c0,2.1,0,4.1,0,6.2H20.4c0-2,0-4.1-0.1-6.1c0-0.9-0.5-1.9-1.1-2.6
		c-1.1-1.2-3-1.6-4.7-1.1c-1.9,0.5-3,1.7-3.1,3.6c-0.1,1.9,0,3.8,0,5.7h0c0,0.2,0,0.4,0,0.5c-4.6,0-9.9,0.3-9.9,7.6
		c0,14.3,0,28.6,0,42.9c0,4.5,3.2,7.7,7.5,7.7h54c4.4,0,7.4-3.2,7.5-7.8v-9.9C70.5,41.3,70.5,30.2,70.5,19"/>
	<rect x="54.8" y="40.7" class="st0" width="8.6" height="8.8"/>
	<rect x="54.8" y="28.7" class="st0" width="8.5" height="8.9"/>
	<rect x="43.3" y="28.7" class="st0" width="8.5" height="8.9"/>
	<rect x="43.3" y="52.6" class="st0" width="8.6" height="8.9"/>
	<rect x="43.3" y="40.7" class="st0" width="8.6" height="8.8"/>
	<rect x="31.8" y="28.7" class="st0" width="8.5" height="8.8"/>
	<rect x="20.3" y="28.7" class="st0" width="8.5" height="8.8"/>
	<rect x="8.9" y="40.7" class="st0" width="8.5" height="8.8"/>
	<rect x="20.3" y="40.6" class="st0" width="8.5" height="8.8"/>
	<rect x="31.8" y="40.7" class="st0" width="8.5" height="8.8"/>
	<rect x="8.8" y="52.6" class="st0" width="8.5" height="8.8"/>
	<rect x="20.3" y="52.6" class="st0" width="8.5" height="8.9"/>
	<rect x="31.8" y="52.6" class="st0" width="8.5" height="8.8"/>
</g>
</svg>
