<?xml version="1.0" encoding="utf-8"?>
<!-- Generator: Adobe Illustrator 23.1.1, SVG Export Plug-In . SVG Version: 6.00 Build 0)  -->
<svg version="1.1" id="Layer_2" xmlns="http://www.w3.org/2000/svg" xmlns:xlink="http://www.w3.org/1999/xlink" x="0px" y="0px"
	 viewBox="0 0 72 72" style="enable-background:new 0 0 72 72;" xml:space="preserve">
<style type="text/css">
	.st0{fill:#010101;}
	.st1{fill:#003057;}
</style>
<g>
	<path class="st0" d="M14.9,10h0.5C15.2,10,15.1,10,14.9,10L14.9,10z"/>
	<path class="st0" d="M57,10L57,10c-0.1,0-0.2,0-0.3,0H57z"/>
	<path class="st1" d="M57,10c-0.1,0-0.2,0-0.3,0H15.4c-0.1,0-0.3,0-0.5,0c-1,0.2-2.5,0.9-2.5,3.8v53.4c0,2.8,1.6,3.5,2.5,3.7l42.1,0
		c1-0.2,2.6-0.8,2.6-3.7V13.8C59.6,10.8,58,10.1,57,10z M56.5,64c0,2.9-1.7,3.5-2.6,3.7v0.1H18v-0.1c-1-0.2-2.5-0.8-2.5-3.7V17
		c0-3,1.6-3.7,2.5-3.8c0.2,0,0.3,0,0.5,0h35.1c0.1,0,0.2,0,0.3,0c1,0.1,2.6,0.8,2.6,3.8V64z"/>
	<path class="st0" d="M36.3,5.6c-0.1,0-0.2,0-0.3,0c-0.1,0-0.2,0-0.3,0H36.3z"/>
	<path class="st1" d="M45.6,5.6H42c-0.3-2.6-2.9-4.6-6-4.6c-3.1,0-5.7,2-6,4.6h-3.6c-1.7,0-3.1,1.4-3.1,3.1l0.8,6.2
		c0,1.7,1.4,3.1,3.1,3.1h17.4c1.7,0,3.1-1.4,3.1-3.1l0.9-6.2C48.7,7,47.3,5.6,45.6,5.6z M34.6,4.2c0-0.8,0.6-1.4,1.4-1.4
		c0.8,0,1.4,0.6,1.4,1.4c0,0.7-0.5,1.3-1.1,1.4c-0.1,0-0.2,0-0.3,0c-0.1,0-0.2,0-0.3,0C35.1,5.5,34.6,4.9,34.6,4.2z"/>
	<g>
		<path class="st1" d="M25.8,24c0,1.2-1,2.2-2.2,2.2c-1.2,0-2.2-1-2.2-2.2c0-1.2,1-2.2,2.2-2.2C24.8,21.8,25.8,22.8,25.8,24z"/>
		<path class="st1" d="M50.6,24c0,0.9-0.8,1.7-1.7,1.7H30.3c-0.9,0-1.7-0.7-1.7-1.7l0,0c0-0.9,0.8-1.7,1.7-1.7h18.6
			C49.8,22.3,50.6,23.1,50.6,24L50.6,24z"/>
	</g>
	<g>
		<circle class="st1" cx="23.6" cy="33.4" r="2.2"/>
		<path class="st1" d="M50.6,33.4c0,0.9-0.8,1.7-1.7,1.7H30.3c-0.9,0-1.7-0.7-1.7-1.7l0,0c0-0.9,0.8-1.7,1.7-1.7h18.6
			C49.8,31.7,50.6,32.5,50.6,33.4L50.6,33.4z"/>
	</g>
	<g>
		<path class="st1" d="M25.8,42.2c0,1.2-1,2.2-2.2,2.2c-1.2,0-2.2-1-2.2-2.2c0-1.2,1-2.2,2.2-2.2C24.8,40,25.8,41,25.8,42.2z"/>
		<path class="st1" d="M50.6,42.2c0,0.9-0.8,1.7-1.7,1.7H30.3c-0.9,0-1.7-0.7-1.7-1.7l0,0c0-0.9,0.8-1.7,1.7-1.7h18.6
			C49.8,40.5,50.6,41.2,50.6,42.2L50.6,42.2z"/>
	</g>
	<g>
		<path class="st1" d="M25.8,50.7c0,1.2-1,2.2-2.2,2.2c-1.2,0-2.2-1-2.2-2.2c0-1.2,1-2.2,2.2-2.2C24.8,48.5,25.8,49.5,25.8,50.7z"/>
		<path class="st1" d="M50.6,50.7c0,0.9-0.8,1.7-1.7,1.7H30.3c-0.9,0-1.7-0.7-1.7-1.7l0,0c0-0.9,0.8-1.7,1.7-1.7h18.6
			C49.8,49.1,50.6,49.8,50.6,50.7L50.6,50.7z"/>
	</g>
	<g>
		<path class="st1" d="M25.8,59.6c0,1.2-1,2.2-2.2,2.2c-1.2,0-2.2-1-2.2-2.2c0-1.2,1-2.2,2.2-2.2C24.8,57.4,25.8,58.4,25.8,59.6z"/>
		<path class="st1" d="M50.6,59.6c0,0.9-0.8,1.7-1.7,1.7H30.3c-0.9,0-1.7-0.7-1.7-1.7l0,0c0-0.9,0.8-1.7,1.7-1.7h18.6
			C49.8,57.9,50.6,58.6,50.6,59.6L50.6,59.6z"/>
	</g>
</g>
</svg>
