<?xml version="1.0" encoding="utf-8"?>
<!-- Generator: Adobe Illustrator 23.1.1, SVG Export Plug-In . SVG Version: 6.00 Build 0)  -->
<svg version="1.1" id="Layer_1" xmlns="http://www.w3.org/2000/svg" xmlns:xlink="http://www.w3.org/1999/xlink" x="0px" y="0px"
	 viewBox="0 0 24 24" style="enable-background:new 0 0 24 24;" xml:space="preserve">
<style type="text/css">
	.st0{fill:none;}
</style>
<path class="st0" d="M0,0h24v24H0V0z"/>
<rect x="6.8" y="11.6" width="6.7" height="1.2"/>
<rect x="6.8" y="9.1" width="9.5" height="1.2"/>
<rect x="6.8" y="6.7" width="9.5" height="1.2"/>
<path d="M18.2,23.2H4.9c-1.2,0-2.3-1-2.3-2.3V4.8c0-1.2,1-2.3,2.3-2.3h3.7c0.5-1.1,1.7-1.9,2.9-1.9c1.3,0,2.4,0.8,2.9,1.9h3.7
	c1.2,0,2.3,1,2.3,2.3v7.7l-0.7,0.7l0-1V4.8c0-0.9-0.7-1.5-1.5-1.5H14L13.9,3c-0.4-1-1.3-1.7-2.3-1.7c-1,0-2,0.7-2.3,1.7L9.1,3.2H4.9
	C4,3.2,3.3,3.9,3.3,4.8v16.2c0,0.9,0.7,1.5,1.5,1.5h13.3c0.9,0,1.5-0.7,1.5-1.5v-3.6l0-1l0.7-0.7v5.3C20.5,22.2,19.4,23.2,18.2,23.2
	z M11.5,5.1c-0.7,0-1.3-0.6-1.3-1.3s0.6-1.3,1.3-1.3s1.3,0.6,1.3,1.3S12.3,5.1,11.5,5.1z M11.5,3.2c-0.3,0-0.6,0.3-0.6,0.6
	s0.3,0.6,0.6,0.6s0.6-0.3,0.6-0.6S11.9,3.2,11.5,3.2z"/>
<path d="M16.2,17.6l-2.2-2.2l-0.7,0.7l3,3l6.4-6.4l-0.7-0.7L16.2,17.6z"/>
</svg>
