<?xml version="1.0" encoding="utf-8"?>
<!-- Generator: Adobe Illustrator 23.1.1, SVG Export Plug-In . SVG Version: 6.00 Build 0)  -->
<svg version="1.1" id="Layer_2" xmlns="http://www.w3.org/2000/svg" xmlns:xlink="http://www.w3.org/1999/xlink" x="0px" y="0px"
	 viewBox="0 0 72 72" style="enable-background:new 0 0 72 72;" xml:space="preserve">
<style type="text/css">
	.st0{fill:#003057;}
</style>
<g>
	<path class="st0" d="M45.8,48.9c-3.2,2.5-6,4.8-8.8,7c-0.4,0.3-1.4,0.4-1.9,0.1c-3-2.2-5.9-4.5-8.8-6.7c0.8-2,2-4.2,2.5-6.5
		c0.9-4.7-0.9-8.6-5-11.1c-2.1-1.3-2.4-2.6-1.6-4.8c1.4-3.9,4.4-5.9,8.2-6.5c1.1-0.2,2.6,0.7,3.6,1.5c1.4,1.2,2.4,1.5,4,0.1
		c2.7-2.4,3.9-2.3,7.7-0.2c2.9,1.6,4.4,4.1,4.7,7.3c0,0.5-0.6,1.3-1.1,1.7c-7.4,5.7-8.2,9.8-3.4,17.9C45.9,48.8,45.9,49.1,45.8,48.9
		z"/>
	<path class="st0" d="M26.8,40.9c0,4.9-3.9,9-8.6,9c-5.2,0-9.1-3.9-9.2-9c0-4.6,4.2-8.7,9-8.6C23,32.2,26.8,36,26.8,40.9z"/>
	<path class="st0" d="M62.8,41c0,5-3.9,8.9-8.9,8.9c-4.7,0-8.6-4.1-8.6-9c0-4.8,3.9-8.7,8.9-8.7C59.1,32.2,62.8,36,62.8,41z"/>
	<path class="st0" d="M36,1.1c5.1,0.1,8.7,3.7,8.7,8.7c0,4.6-4,8.5-8.7,8.4c-4.8-0.1-8.4-3.9-8.4-8.7C27.7,4.7,31.4,1,36,1.1z"/>
	<path class="st0" d="M70.6,68.1c0,0.5,0,1.7-0.3,2.2c-0.2,0.4-0.9,0.6-1.4,0.6c-1.4,0-1.8-1.7-1.9-2.7c-0.1-1-0.1-1.9-0.1-2.9
		c0-0.8,0.2-1.7,0.1-2.5c-0.1-1.1-0.6-1.8-1.7-2c-0.7-0.1-1.4-0.1-2.1-0.1c-1,0-2,0-3,0c-2,0-4.1,0-6.1,0h-0.3c-2,0-4.1,0-6.1,0
		c-1,0-2,0-3,0c-0.7,0-1.4-0.1-2.1,0.1c-1,0.2-1.6,0.9-1.7,2c-0.1,0.8,0.1,1.7,0.1,2.5c0,1,0,1.9-0.1,2.9c-0.1,1-0.5,2.8-1.9,2.7
		c-0.5,0-1.2-0.2-1.4-0.6c-0.3-0.5-0.3-1.6-0.3-2.2c-0.1-2.9-0.6-5.3,0.4-8.2c0.8-2.4,2.7-4.5,4.7-6c2-1.4,4.2-2,6.5-2.2
		c0.5,0,0.9-0.1,1.4-0.1c1.1,0,2.3-0.1,3.5-0.1c0.1,0,0.1,0,0.2,0c1.2,0,2.3,0.1,3.5,0.1c0.5,0,1,0,1.4,0.1c2.3,0.2,4.5,0.8,6.5,2.2
		c2,1.4,3.9,3.6,4.7,6C71.2,62.8,70.6,65.2,70.6,68.1z"/>
	<path class="st0" d="M34.6,68.1c0,0.5,0,1.7-0.3,2.2c-0.2,0.4-0.9,0.6-1.4,0.6c-1.4,0-1.8-1.7-1.9-2.7c-0.1-1-0.1-1.9-0.1-2.9
		c0-0.8,0.2-1.7,0.1-2.5c-0.1-1.1-0.6-1.8-1.7-2c-0.7-0.1-1.4-0.1-2.1-0.1c-1,0-2,0-3,0c-2,0-4.1,0-6.1,0h-0.3c-2,0-4.1,0-6.1,0
		c-1,0-2,0-3,0c-0.7,0-1.4-0.1-2.1,0.1c-1,0.2-1.6,0.9-1.7,2c-0.1,0.8,0.1,1.7,0.1,2.5c0,1,0,1.9-0.1,2.9c-0.1,1-0.5,2.8-1.9,2.7
		c-0.5,0-1.2-0.2-1.4-0.6c-0.3-0.5-0.3-1.6-0.3-2.2c-0.1-2.9-0.6-5.3,0.4-8.2c0.8-2.4,2.7-4.5,4.7-6c2-1.4,4.2-2,6.5-2.2
		c0.5,0,0.9-0.1,1.4-0.1c1.1,0,2.3-0.1,3.5-0.1c0.1,0,0.1,0,0.2,0c1.2,0,2.3,0.1,3.5,0.1c0.5,0,1,0,1.4,0.1c2.3,0.2,4.5,0.8,6.5,2.2
		c2,1.4,3.9,3.6,4.7,6C35.2,62.8,34.6,65.2,34.6,68.1z"/>
</g>
</svg>
