<?xml version="1.0" encoding="utf-8"?>
<!-- Generator: Adobe Illustrator 23.1.1, SVG Export Plug-In . SVG Version: 6.00 Build 0)  -->
<svg version="1.1" id="Layer_1" xmlns="http://www.w3.org/2000/svg" xmlns:xlink="http://www.w3.org/1999/xlink" x="0px" y="0px"
	 viewBox="0 0 700 393" style="enable-background:new 0 0 700 393;" xml:space="preserve">
<style type="text/css">
	.st0{fill:#FFFFFF;}
	.st1{fill:#00B050;}
	.st2{fill:#1A70B9;}
	.st3{fill:#242430;}
	.st4{fill:#231F20;}
	.st5{fill:#293033;}
</style>
<rect class="st0" width="700" height="393"/>
<g>
	<g>
		<path class="st1" d="M170.7,95.7h-36.9v-6.1c0-6.5-0.4-10.8-1.3-12.8c-0.9-2-2.7-3-5.5-3c-2.3,0-3.9,0.9-5.1,2.6
			c-1.1,1.7-1.7,4.3-1.7,7.8c0,5.8,1.2,9.8,3.5,12.1c2.3,2.3,8.9,6.8,19.9,13.5c9.4,5.7,15.8,10,19.2,13s6.3,7.3,8.6,12.8
			s3.5,12.4,3.5,20.6c0,13.1-3.2,23.5-9.5,30.9c-6.3,7.5-15.8,12.1-28.5,13.9v13.9h-17v-14.3c-9.9-1-18.5-4.8-25.8-11.4
			c-7.4-6.6-11.1-18.1-11.1-34.6v-7.2h36.9v9c0,9.9,0.4,16.1,1.1,18.5c0.8,2.4,2.6,3.6,5.5,3.6c2.5,0,4.4-0.8,5.6-2.5
			s1.8-4.2,1.8-7.4c0-8.3-0.6-14.2-1.7-17.8c-1.2-3.6-5.1-7.4-11.9-11.6c-11.3-7.1-18.9-12.2-23-15.6c-4-3.3-7.6-8-10.5-14
			c-3-6-4.4-12.8-4.4-20.4c0-11,3.1-19.7,9.4-25.9c6.2-6.3,15.6-10.1,28.1-11.6V39.9h17v11.8c11.4,1.5,19.9,5.3,25.6,11.5
			c5.7,6.2,8.5,14.7,8.5,25.6C171.1,90.2,171,92.6,170.7,95.7z"/>
		<path class="st1" d="M243.5,52.6v147.8h-36.9v-79.2c0-11.4-0.3-18.3-0.8-20.6c-0.5-2.3-2.1-4.1-4.5-5.2c-2.5-1.2-8-1.8-16.5-1.8
			h-3.7V76.2c17.8-3.8,31.4-11.7,40.6-23.7h21.8V52.6z"/>
		<path class="st1" d="M344.9,102.6v49.3c0,11.2-0.6,19.4-1.8,24.5c-1.2,5.1-3.7,9.9-7.6,14.3c-3.8,4.4-8.5,7.6-13.9,9.6
			c-5.4,1.9-11.5,2.9-18.2,2.9c-8.8,0-16.2-1-22-3.1c-5.8-2-10.5-5.2-14-9.5s-5.9-8.9-7.4-13.6c-1.5-4.8-2.2-12.4-2.2-22.8v-51.6
			c0-13.6,1.2-23.7,3.5-30.5c2.3-6.8,7-12.2,14-16.2c7-4.1,15.4-6.1,25.3-6.1c8.1,0,15.3,1.4,21.7,4.2s11.2,6.3,14.3,10.4
			c3.2,4.1,5.3,8.7,6.4,13.8C344.3,83.2,344.9,91.4,344.9,102.6z M308,90.2c0-7.9-0.4-12.8-1.1-14.7c-0.8-2-2.5-3-5.3-3
			c-2.7,0-4.6,1-5.4,3.1c-0.9,2.1-1.3,7-1.3,14.6v72.1c0,8.6,0.4,13.8,1.2,15.5c0.8,1.8,2.6,2.6,5.3,2.6s4.5-1,5.4-3.1
			s1.3-6.7,1.3-14V90.2H308z"/>
	</g>
	<g>
		<path class="st1" d="M372.1,179.2v9.7c0,5.1-0.6,9.2-1.8,12.5c-1.2,3.2-3.3,6-6.2,8.3c-3,2.3-6.3,3.8-10.1,4.5v-7.7
			c2.7-1.5,4.2-3.5,4.5-6.1H354v-21.2H372.1z"/>
	</g>
	<g>
		<path class="st1" d="M468.2,102.6v49.3c0,11.2-0.6,19.4-1.8,24.5c-1.2,5.1-3.7,9.9-7.6,14.3c-3.8,4.4-8.5,7.6-13.9,9.6
			c-5.4,1.9-11.5,2.9-18.2,2.9c-8.8,0-16.2-1-22-3.1c-5.8-2-10.5-5.2-14-9.5s-5.9-8.9-7.4-13.6c-1.5-4.8-2.2-12.4-2.2-22.8v-51.6
			c0-13.6,1.2-23.7,3.5-30.5c2.3-6.8,7-12.2,14-16.2c7-4.1,15.4-6.1,25.3-6.1c8.1,0,15.3,1.4,21.7,4.2s11.2,6.3,14.3,10.4
			c3.2,4.1,5.3,8.7,6.4,13.8C467.6,83.2,468.2,91.4,468.2,102.6z M431.3,90.2c0-7.9-0.4-12.8-1.1-14.7c-0.8-2-2.5-3-5.3-3
			c-2.7,0-4.6,1-5.4,3.1c-0.9,2.1-1.3,7-1.3,14.6v72.1c0,8.6,0.4,13.8,1.2,15.5c0.8,1.8,2.6,2.6,5.3,2.6c2.7,0,4.5-1,5.4-3.1
			s1.3-6.7,1.3-14V90.2H431.3z"/>
		<path class="st1" d="M568.5,102.6v49.3c0,11.2-0.6,19.4-1.8,24.5s-3.7,9.9-7.6,14.3c-3.8,4.4-8.5,7.6-13.9,9.6
			c-5.4,1.9-11.5,2.9-18.2,2.9c-8.8,0-16.2-1-22-3.1c-5.8-2-10.5-5.2-14-9.5s-5.9-8.9-7.4-13.6c-1.5-4.8-2.2-12.4-2.2-22.8v-51.6
			c0-13.6,1.2-23.7,3.5-30.5c2.3-6.8,7-12.2,14-16.2c7-4.1,15.4-6.1,25.3-6.1c8.1,0,15.3,1.4,21.7,4.2s11.2,6.3,14.3,10.4
			c3.2,4.1,5.3,8.7,6.4,13.8C567.9,83.2,568.5,91.4,568.5,102.6z M531.6,90.2c0-7.9-0.4-12.8-1.1-14.7c-0.8-2-2.5-3-5.3-3
			c-2.7,0-4.6,1-5.4,3.1c-0.9,2.1-1.3,7-1.3,14.6v72.1c0,8.6,0.4,13.8,1.2,15.5c0.8,1.8,2.6,2.6,5.3,2.6s4.5-1,5.4-3.1
			s1.3-6.7,1.3-14V90.2H531.6z"/>
		<path class="st1" d="M668.7,102.6v49.3c0,11.2-0.6,19.4-1.8,24.5s-3.7,9.9-7.6,14.3c-3.8,4.4-8.5,7.6-13.9,9.6
			c-5.4,1.9-11.5,2.9-18.2,2.9c-8.8,0-16.2-1-22-3.1c-5.8-2-10.5-5.2-14-9.5s-5.9-8.9-7.4-13.6c-1.5-4.8-2.2-12.4-2.2-22.8v-51.6
			c0-13.6,1.2-23.7,3.5-30.5c2.3-6.8,7-12.2,14-16.2c7-4.1,15.4-6.1,25.3-6.1c8.1,0,15.3,1.4,21.7,4.2s11.2,6.3,14.3,10.4
			c3.2,4.1,5.3,8.7,6.4,13.8C668.2,83.2,668.7,91.4,668.7,102.6z M631.8,90.2c0-7.9-0.4-12.8-1.1-14.7c-0.8-2-2.5-3-5.3-3
			c-2.7,0-4.6,1-5.4,3.1c-0.9,2.1-1.3,7-1.3,14.6v72.1c0,8.6,0.4,13.8,1.2,15.5c0.8,1.8,2.6,2.6,5.3,2.6s4.5-1,5.4-3.1
			s1.3-6.7,1.3-14V90.2H631.8z"/>
	</g>
</g>
<g>
	<path class="st2" d="M102,276.7c0.5,0,1.2,0.1,2,0.2v7.8c-0.5-0.1-1.5-0.1-2.7-0.2c-1.3,0-2.2,0.2-2.6,0.8c-0.5,0.6-0.7,1.3-0.7,2
		s0,1.8,0,3.1h6.3v6.8H98v29.6h-9.6v-29.6H83v-6.8h5.3V288c0-3.9,0.7-6.6,2-8.1c1.4-2.2,4.8-3.3,10.1-3.3
		C100.9,276.6,101.5,276.7,102,276.7z"/>
	<path class="st2" d="M140.6,322.3c-3.1,3.8-7.8,5.7-14.2,5.7c-6.3,0-11.1-1.9-14.2-5.7c-3.1-3.8-4.7-8.4-4.7-13.8
		c0-5.3,1.6-9.9,4.7-13.8s7.8-5.8,14.2-5.8c6.3,0,11.1,1.9,14.2,5.8c3.1,3.9,4.7,8.5,4.7,13.8C145.3,313.9,143.7,318.5,140.6,322.3z
		 M132.9,317c1.5-2,2.3-4.8,2.3-8.5s-0.8-6.5-2.3-8.5s-3.7-3-6.5-3s-5,1-6.5,3s-2.3,4.8-2.3,8.5s0.8,6.5,2.3,8.5s3.7,3,6.5,3
		S131.4,319,132.9,317z"/>
	<path class="st2" d="M171.4,289.2c0.1,0,0.4,0,0.8,0.1v9.8c-0.6-0.1-1.2-0.1-1.6-0.1c-0.5,0-0.9,0-1.2,0c-3.9,0-6.5,1.3-7.8,3.8
		c-0.7,1.4-1.1,3.6-1.1,6.5v17.6h-9.7v-36.7h9.2v6.4c1.5-2.4,2.8-4.1,3.9-5c1.8-1.5,4.2-2.3,7-2.3
		C171.1,289.2,171.3,289.2,171.4,289.2z"/>
	<path class="st2" d="M219.3,303.3c-0.2-1.4-0.6-2.6-1.4-3.7c-1.1-1.5-2.8-2.2-5.1-2.2c-3.3,0-5.5,1.6-6.7,4.8c-0.6,1.7-1,4-1,6.8
		c0,2.7,0.3,4.9,1,6.5c1.2,3.1,3.3,4.6,6.5,4.6c2.3,0,3.9-0.6,4.8-1.8c1-1.2,1.5-2.8,1.7-4.7h9.9c-0.2,2.9-1.3,5.7-3.2,8.3
		c-3,4.2-7.5,6.3-13.5,6.3c-5.9,0-10.3-1.8-13.1-5.3s-4.2-8.1-4.2-13.6c0-6.3,1.5-11.2,4.6-14.7s7.4-5.3,12.8-5.3
		c4.6,0,8.4,1,11.4,3.1c2.9,2.1,4.7,5.7,5.2,11L219.3,303.3L219.3,303.3z"/>
	<path class="st2" d="M250.4,304.5c1.8-0.2,3.1-0.5,3.9-0.8c1.4-0.6,2.1-1.5,2.1-2.7c0-1.5-0.5-2.5-1.6-3.1s-2.6-0.9-4.7-0.9
		c-2.3,0-3.9,0.6-4.9,1.7c-0.7,0.8-1.1,2-1.4,3.4h-9.3c0.2-3.2,1.1-5.9,2.7-7.9c2.6-3.2,7-4.9,13.2-4.9c4.1,0,7.7,0.8,10.8,2.4
		c3.2,1.6,4.7,4.6,4.7,9v16.9c0,1.2,0,2.6,0.1,4.2c0.1,1.3,0.3,2.1,0.6,2.6c0.3,0.4,0.8,0.8,1.4,1.1v1.4h-10.5
		c-0.3-0.7-0.5-1.4-0.6-2.1s-0.2-1.4-0.3-2.2c-1.3,1.4-2.9,2.7-4.6,3.7c-2.1,1.2-4.5,1.8-7.1,1.8c-3.4,0-6.1-0.9-8.3-2.8
		s-3.3-4.6-3.3-8.1c0-4.5,1.8-7.8,5.3-9.8c1.9-1.1,4.8-1.9,8.5-2.4L250.4,304.5z M256.3,309c-0.6,0.4-1.2,0.7-1.9,0.9
		c-0.6,0.2-1.5,0.5-2.6,0.7l-2.2,0.4c-2.1,0.4-3.5,0.8-4.4,1.3c-1.5,0.9-2.3,2.2-2.3,4.1c0,1.6,0.5,2.8,1.4,3.6
		c0.9,0.7,2.1,1.1,3.4,1.1c2.1,0,4.1-0.6,5.8-1.8c1.8-1.2,2.7-3.4,2.8-6.6V309z"/>
	<path class="st2" d="M294.9,289.2c0.1,0,0.4,0,0.8,0.1v9.8c-0.6-0.1-1.2-0.1-1.6-0.1c-0.5,0-0.9,0-1.2,0c-3.9,0-6.5,1.3-7.8,3.8
		c-0.7,1.4-1.1,3.6-1.1,6.5v17.6h-9.7v-36.7h9.2v6.4c1.5-2.4,2.8-4.1,3.9-5c1.8-1.5,4.2-2.3,7-2.3
		C294.6,289.2,294.7,289.2,294.9,289.2z"/>
	<path class="st2" d="M325.4,290.8c2.6,1.1,4.7,3,6.4,5.4c1.5,2.2,2.5,4.7,2.9,7.6c0.3,1.7,0.4,4.1,0.3,7.3h-26.9
		c0.1,3.7,1.4,6.3,3.9,7.8c1.5,0.9,3.2,1.4,5.3,1.4c2.2,0,4-0.6,5.4-1.7c0.7-0.6,1.4-1.4,2-2.5h9.9c-0.3,2.2-1.5,4.4-3.6,6.6
		c-3.3,3.6-7.9,5.4-13.9,5.4c-4.9,0-9.3-1.5-13-4.5c-3.8-3-5.6-7.9-5.6-14.7c0-6.4,1.7-11.2,5.1-14.6s7.8-5.1,13.2-5.1
		C319.9,289.1,322.8,289.7,325.4,290.8z M311,299.1c-1.4,1.4-2.2,3.3-2.6,5.7H325c-0.2-2.6-1-4.5-2.6-5.8c-1.5-1.3-3.4-2-5.7-2
		C314.2,297,312.3,297.7,311,299.1z"/>
	<path class="st2" d="M364,290.8c2.6,1.1,4.7,3,6.4,5.4c1.5,2.2,2.5,4.7,2.9,7.6c0.3,1.7,0.4,4.1,0.3,7.3h-26.9
		c0.1,3.7,1.4,6.3,3.9,7.8c1.5,0.9,3.2,1.4,5.3,1.4c2.2,0,4-0.6,5.4-1.7c0.7-0.6,1.4-1.4,2-2.5h9.9c-0.3,2.2-1.5,4.4-3.6,6.6
		c-3.3,3.6-7.9,5.4-13.9,5.4c-4.9,0-9.3-1.5-13-4.5c-3.8-3-5.6-7.9-5.6-14.7c0-6.4,1.7-11.2,5.1-14.6s7.8-5.1,13.2-5.1
		C358.5,289.1,361.4,289.7,364,290.8z M349.5,299.1c-1.4,1.4-2.2,3.3-2.6,5.7h16.6c-0.2-2.6-1-4.5-2.6-5.8c-1.5-1.3-3.4-2-5.7-2
		C352.8,297,350.9,297.7,349.5,299.1z"/>
	<path class="st2" d="M399,289.2c0.1,0,0.4,0,0.8,0.1v9.8c-0.6-0.1-1.2-0.1-1.6-0.1c-0.5,0-0.9,0-1.2,0c-3.9,0-6.5,1.3-7.8,3.8
		c-0.7,1.4-1.1,3.6-1.1,6.5v17.6h-9.7v-36.7h9.2v6.4c1.5-2.4,2.8-4.1,3.9-5c1.8-1.5,4.2-2.3,7-2.3
		C398.7,289.2,398.9,289.2,399,289.2z"/>
	<path class="st2" d="M421,297.3v-6.8h5.1v-10.2h9.6v10.2h6v6.8h-6v19.4c0,1.5,0.2,2.4,0.6,2.8s1.6,0.6,3.5,0.6c0.3,0,0.6,0,0.9,0
		s0.6,0,1-0.1v7.2l-4.6,0.2c-4.6,0.2-7.7-0.6-9.3-2.4c-1.1-1.1-1.6-2.8-1.6-5.1v-22.6H421z"/>
	<path class="st2" d="M469.7,289.2c0.1,0,0.4,0,0.8,0.1v9.8c-0.6-0.1-1.2-0.1-1.6-0.1c-0.5,0-0.9,0-1.2,0c-3.9,0-6.5,1.3-7.8,3.8
		c-0.7,1.4-1.1,3.6-1.1,6.5v17.6h-9.7v-36.7h9.2v6.4c1.5-2.4,2.8-4.1,3.9-5c1.8-1.5,4.2-2.3,7-2.3
		C469.4,289.2,469.6,289.2,469.7,289.2z"/>
	<path class="st2" d="M490.8,304.5c1.8-0.2,3.1-0.5,3.9-0.8c1.4-0.6,2.1-1.5,2.1-2.7c0-1.5-0.5-2.5-1.6-3.1s-2.6-0.9-4.7-0.9
		c-2.3,0-3.9,0.6-4.9,1.7c-0.7,0.8-1.1,2-1.4,3.4h-9.3c0.2-3.2,1.1-5.9,2.7-7.9c2.6-3.2,7-4.9,13.2-4.9c4.1,0,7.7,0.8,10.8,2.4
		c3.2,1.6,4.7,4.6,4.7,9v16.9c0,1.2,0,2.6,0.1,4.2c0.1,1.3,0.3,2.1,0.6,2.6c0.3,0.4,0.8,0.8,1.4,1.1v1.4h-10.5
		c-0.3-0.7-0.5-1.4-0.6-2.1s-0.2-1.4-0.3-2.2c-1.3,1.4-2.9,2.7-4.6,3.7c-2.1,1.2-4.5,1.8-7.1,1.8c-3.4,0-6.1-0.9-8.3-2.8
		c-2.2-1.9-3.3-4.6-3.3-8.1c0-4.5,1.8-7.8,5.3-9.8c1.9-1.1,4.8-1.9,8.5-2.4L490.8,304.5z M496.7,309c-0.6,0.4-1.2,0.7-1.9,0.9
		c-0.6,0.2-1.5,0.5-2.6,0.7L490,311c-2.1,0.4-3.5,0.8-4.4,1.3c-1.5,0.9-2.3,2.2-2.3,4.1c0,1.6,0.5,2.8,1.4,3.6
		c0.9,0.7,2.1,1.1,3.4,1.1c2.1,0,4.1-0.6,5.8-1.8c1.8-1.2,2.7-3.4,2.8-6.6L496.7,309L496.7,309z"/>
	<path class="st2" d="M524.7,285.7h-9.8v-8.9h9.8V285.7z M514.9,290.1h9.8v36.7h-9.8V290.1z"/>
	<path class="st2" d="M562.5,292.2c2.4,2,3.6,5.3,3.6,9.9v24.7h-9.9v-22.4c0-1.9-0.3-3.4-0.8-4.4c-0.9-1.9-2.7-2.8-5.4-2.8
		c-3.3,0-5.5,1.4-6.7,4.1c-0.6,1.5-0.9,3.3-0.9,5.6v19.9h-9.7v-36.7h9.4v5.4c1.2-1.9,2.4-3.2,3.5-4.1c2-1.5,4.5-2.2,7.5-2.2
		C556.9,289.2,560,290.2,562.5,292.2z"/>
	<path class="st2" d="M583.7,285.7h-9.8v-8.9h9.8V285.7z M573.9,290.1h9.8v36.7h-9.8V290.1z"/>
	<path class="st2" d="M622.8,292.2c2.4,2,3.6,5.3,3.6,9.9v24.7h-9.9v-22.4c0-1.9-0.3-3.4-0.8-4.4c-0.9-1.9-2.7-2.8-5.4-2.8
		c-3.3,0-5.5,1.4-6.7,4.1c-0.6,1.5-0.9,3.3-0.9,5.6v19.9H593v-36.7h9.4v5.4c1.2-1.9,2.4-3.2,3.5-4.1c2-1.5,4.5-2.2,7.5-2.2
		C617.3,289.2,620.4,290.2,622.8,292.2z"/>
	<path class="st2" d="M653.7,290.1c2.3,1,4.2,2.7,5.7,5.3v-5.3h9.4V325c0,4.7-0.8,8.3-2.4,10.7c-2.8,4.1-8,6.2-15.9,6.2
		c-4.7,0-8.6-0.9-11.6-2.8c-3-1.8-4.6-4.6-4.9-8.3h10.5c0.3,1.1,0.7,1.9,1.3,2.4c1,0.9,2.8,1.3,5.3,1.3c3.5,0,5.8-1.2,7-3.5
		c0.8-1.5,1.2-4,1.2-7.5v-2.4c-0.9,1.6-1.9,2.8-3,3.5c-1.9,1.5-4.4,2.2-7.5,2.2c-4.7,0-8.5-1.7-11.4-5c-2.8-3.3-4.3-7.8-4.3-13.5
		c0-5.5,1.4-10.1,4.1-13.8c2.7-3.7,6.6-5.6,11.6-5.6C650.7,289.2,652.3,289.5,653.7,290.1z M657,316.4c1.6-1.7,2.3-4.4,2.3-8.1
		c0-3.5-0.7-6.1-2.2-8c-1.5-1.8-3.4-2.7-5.9-2.7c-3.4,0-5.7,1.6-7,4.8c-0.7,1.7-1,3.8-1,6.2c0,2.1,0.4,4,1.1,5.7
		c1.3,3.1,3.6,4.7,7,4.7C653.5,319,655.4,318.1,657,316.4z"/>
</g>
<g>
	<path class="st2" d="M29.9,201.6V198h22.6c4.7,0,8.1-0.9,10.2-2.6c2.1-1.8,3.1-4.6,3.1-8.5c0-2-0.3-3.8-0.8-5.2s-1.4-2.6-2.5-3.5
		s-2.5-1.5-4.1-1.9s-3.6-0.6-5.8-0.6H29.9v-3.6h23.6c4.9,0,8.7,1.2,11.3,3.7c2.6,2.5,3.9,6.1,3.9,11.1s-1.3,8.7-4,11.1
		c-2.7,2.4-6.4,3.6-11.3,3.6H29.9z"/>
	<path class="st2" d="M67.8,163.6H29.9v-13.9c0-2.5,0.3-4.5,0.8-6.1c0.6-1.6,1.3-2.9,2.3-3.8c1-0.9,2.1-1.6,3.4-2
		c1.3-0.4,2.6-0.6,4-0.6c2.1,0,3.8,0.4,5.2,1.3c1.4,0.9,2.4,2,3.2,3.4s1.3,2.9,1.7,4.7c0.3,1.7,0.5,3.5,0.5,5.3v8.1h16.7L67.8,163.6
		L67.8,163.6z M48,151.8c0-1.7-0.1-3.2-0.3-4.5s-0.6-2.5-1.2-3.4c-0.6-0.9-1.4-1.7-2.4-2.2s-2.3-0.8-3.9-0.8c-2.4,0-4.2,0.8-5.4,2.4
		c-1.2,1.6-1.8,4.1-1.8,7.5v9.3h15C48,160.1,48,151.8,48,151.8z"/>
	<path class="st2" d="M29.9,119.9V92.2H33v12.1h34.8v3.6H33V120L29.9,119.9L29.9,119.9z"/>
	<path class="st2" d="M48.9,88.6c-2.8,0-5.4-0.4-7.8-1.1c-2.4-0.8-4.5-1.9-6.3-3.4s-3.2-3.3-4.3-5.5c-1.1-2.2-1.6-4.7-1.6-7.6
		c0-3,0.5-5.6,1.6-7.8c1-2.2,2.5-4.1,4.3-5.6s3.9-2.6,6.4-3.4c2.4-0.8,5-1.1,7.8-1.1c2.7,0,5.3,0.4,7.7,1.1c2.4,0.8,4.5,1.9,6.3,3.4
		s3.2,3.3,4.3,5.6c1.1,2.2,1.6,4.8,1.6,7.7s-0.5,5.5-1.6,7.7s-2.5,4.1-4.3,5.6s-3.9,2.6-6.3,3.3C54.2,88.2,51.6,88.6,48.9,88.6z
		 M65.7,70.8c0-2.5-0.5-4.6-1.4-6.4c-0.9-1.8-2.2-3.2-3.7-4.4c-1.5-1.1-3.3-2-5.4-2.5c-2-0.5-4.2-0.8-6.4-0.8c-2.6,0-5,0.3-7.1,1
		s-3.9,1.6-5.3,2.8c-1.5,1.2-2.6,2.7-3.4,4.5c-0.8,1.8-1.2,3.7-1.2,5.9c0,2.4,0.5,4.5,1.4,6.3s2.2,3.2,3.8,4.4
		c1.6,1.1,3.4,2,5.4,2.5s4.2,0.8,6.4,0.8s4.4-0.3,6.4-0.8s3.8-1.4,5.4-2.5c1.5-1.1,2.8-2.6,3.7-4.4C65.3,75.4,65.7,73.3,65.7,70.8z"
		/>
</g>
<g>
	<path class="st1" d="M73,257.5v-4.1h6.2v-6.5h4v6.5h6.2v4.1h-6.2v6.5h-4v-6.5H73z"/>
	<path class="st1" d="M98.7,250.2V247h2.3v-4.8h4.2v4.8h2.7v3.2h-2.7v9.1c0,0.7,0.1,1.1,0.3,1.3c0.2,0.2,0.7,0.3,1.6,0.3
		c0.1,0,0.3,0,0.4,0s0.3,0,0.4,0v3.4l-2,0.1c-2,0.1-3.4-0.3-4.1-1.1c-0.5-0.5-0.7-1.3-0.7-2.4v-10.6L98.7,250.2L98.7,250.2z"/>
	<path class="st1" d="M120.3,246.4c0.1,0,0.2,0,0.4,0v4.6c-0.3,0-0.5-0.1-0.7-0.1s-0.4,0-0.5,0c-1.7,0-2.9,0.6-3.5,1.8
		c-0.3,0.7-0.5,1.7-0.5,3.1v8.2h-4.3v-17.2h4.1v3c0.7-1.1,1.2-1.9,1.7-2.4c0.8-0.7,1.8-1.1,3.1-1.1
		C120.2,246.4,120.3,246.4,120.3,246.4z"/>
	<path class="st1" d="M129.7,253.6c0.8-0.1,1.4-0.2,1.7-0.4c0.6-0.3,0.9-0.7,0.9-1.3c0-0.7-0.2-1.2-0.7-1.5s-1.2-0.4-2.1-0.4
		c-1,0-1.8,0.3-2.2,0.8c-0.3,0.4-0.5,0.9-0.6,1.6h-4.1c0.1-1.5,0.5-2.7,1.2-3.7c1.1-1.5,3.1-2.3,5.9-2.3c1.8,0,3.4,0.4,4.8,1.1
		c1.4,0.7,2.1,2.2,2.1,4.2v7.9c0,0.5,0,1.2,0,2c0,0.6,0.1,1,0.3,1.2c0.1,0.2,0.4,0.4,0.6,0.5v0.7h-4.7c-0.1-0.3-0.2-0.7-0.3-1
		s-0.1-0.7-0.1-1c-0.6,0.7-1.3,1.2-2.1,1.7c-0.9,0.6-2,0.8-3.1,0.8c-1.5,0-2.7-0.4-3.7-1.3s-1.5-2.2-1.5-3.8c0-2.1,0.8-3.7,2.3-4.6
		c0.9-0.5,2.1-0.9,3.8-1.1L129.7,253.6z M132.3,255.7c-0.3,0.2-0.6,0.3-0.8,0.4c-0.3,0.1-0.7,0.2-1.1,0.3l-1,0.2
		c-0.9,0.2-1.6,0.4-2,0.6c-0.7,0.4-1,1-1,1.9c0,0.8,0.2,1.3,0.6,1.7c0.4,0.3,0.9,0.5,1.5,0.5c0.9,0,1.8-0.3,2.6-0.9s1.2-1.6,1.2-3.1
		V255.7z"/>
	<path class="st1" d="M153.5,247.8c1.1,0.9,1.6,2.5,1.6,4.6V264h-4.4v-10.5c0-0.9-0.1-1.6-0.3-2.1c-0.4-0.9-1.2-1.3-2.4-1.3
		c-1.4,0-2.4,0.6-3,1.9c-0.3,0.7-0.4,1.6-0.4,2.6v9.3h-4.3v-17.2h4.1v2.5c0.5-0.9,1.1-1.5,1.6-1.9c0.9-0.7,2-1,3.3-1
		C151.1,246.4,152.4,246.9,153.5,247.8z"/>
	<path class="st1" d="M162.4,258.6c0.1,0.8,0.3,1.4,0.6,1.7c0.5,0.6,1.5,0.9,3,0.9c0.8,0,1.5-0.1,2-0.4s0.7-0.7,0.7-1.2
		s-0.2-0.9-0.6-1.2c-0.4-0.3-1.9-0.7-4.5-1.4c-1.9-0.5-3.2-1.1-3.9-1.8c-0.8-0.7-1.1-1.7-1.1-3.1c0-1.6,0.6-3,1.8-4.1s2.9-1.7,5-1.7
		c2,0,3.7,0.4,5,1.3c1.3,0.9,2,2.3,2.2,4.5h-4.3c-0.1-0.6-0.2-1-0.5-1.4c-0.5-0.6-1.3-0.9-2.4-0.9c-0.9,0-1.6,0.2-2,0.5
		s-0.6,0.7-0.6,1.1c0,0.5,0.2,0.9,0.6,1.1c0.4,0.2,1.9,0.7,4.5,1.2c1.7,0.4,3,1.1,3.8,1.9c0.8,0.9,1.3,1.9,1.3,3.2
		c0,1.7-0.6,3.1-1.8,4.2s-3.1,1.6-5.6,1.6c-2.6,0-4.5-0.6-5.7-1.7s-1.8-2.6-1.8-4.4L162.4,258.6L162.4,258.6z"/>
	<path class="st1" d="M190,248.7c1.3,1.5,2,3.7,2,6.5c0,3-0.7,5.3-2,6.9s-3,2.4-5,2.4c-1.3,0-2.4-0.3-3.3-1
		c-0.5-0.4-0.9-0.9-1.4-1.7v9h-4.2v-24h4.1v2.5c0.5-0.7,1-1.3,1.5-1.8c1-0.8,2.1-1.2,3.4-1.2C187,246.4,188.7,247.2,190,248.7z
		 M186.7,251.9c-0.6-1-1.5-1.5-2.8-1.5c-1.6,0-2.6,0.8-3.2,2.3c-0.3,0.8-0.5,1.9-0.5,3.1c0,2,0.5,3.4,1.5,4.2
		c0.6,0.5,1.3,0.7,2.2,0.7c1.2,0,2.1-0.5,2.8-1.5c0.6-1,0.9-2.3,0.9-3.9C187.6,254.1,187.3,252.9,186.7,251.9z"/>
	<path class="st1" d="M208.7,261.9c-1.4,1.8-3.5,2.7-6.3,2.7s-4.9-0.9-6.3-2.7c-1.4-1.8-2.1-4-2.1-6.5s0.7-4.6,2.1-6.5
		c1.4-1.8,3.5-2.7,6.3-2.7s4.9,0.9,6.3,2.7c1.4,1.8,2.1,4,2.1,6.5C210.7,258,210,260.2,208.7,261.9z M205.2,259.5c0.7-0.9,1-2.3,1-4
		c0-1.7-0.3-3.1-1-4s-1.6-1.4-2.9-1.4s-2.2,0.5-2.9,1.4s-1,2.3-1,4c0,1.7,0.3,3.1,1,4s1.6,1.4,2.9,1.4S204.6,260.4,205.2,259.5z"/>
	<path class="st1" d="M222.9,246.4c0.1,0,0.2,0,0.4,0v4.6c-0.3,0-0.5-0.1-0.7-0.1s-0.4,0-0.5,0c-1.7,0-2.9,0.6-3.5,1.8
		c-0.3,0.7-0.5,1.7-0.5,3.1v8.2h-4.3v-17.2h4.1v3c0.7-1.1,1.2-1.9,1.7-2.4c0.8-0.7,1.8-1.1,3.1-1.1
		C222.8,246.4,222.8,246.4,222.9,246.4z"/>
	<path class="st1" d="M225.3,250.2V247h2.3v-4.8h4.2v4.8h2.7v3.2h-2.7v9.1c0,0.7,0.1,1.1,0.3,1.3c0.2,0.2,0.7,0.3,1.6,0.3
		c0.1,0,0.3,0,0.4,0c0.1,0,0.3,0,0.4,0v3.4l-2,0.1c-2,0.1-3.4-0.3-4.1-1.1c-0.5-0.5-0.7-1.3-0.7-2.4v-10.6L225.3,250.2L225.3,250.2z
		"/>
	<path class="st1" d="M244.9,253.6c0.8-0.1,1.4-0.2,1.7-0.4c0.6-0.3,0.9-0.7,0.9-1.3c0-0.7-0.2-1.2-0.7-1.5s-1.2-0.4-2.1-0.4
		c-1,0-1.8,0.3-2.2,0.8c-0.3,0.4-0.5,0.9-0.6,1.6h-4.1c0.1-1.5,0.5-2.7,1.2-3.7c1.1-1.5,3.1-2.3,5.9-2.3c1.8,0,3.4,0.4,4.8,1.1
		c1.4,0.7,2.1,2.2,2.1,4.2v7.9c0,0.5,0,1.2,0,2c0,0.6,0.1,1,0.3,1.2c0.1,0.2,0.4,0.4,0.6,0.5v0.7H248c-0.1-0.3-0.2-0.7-0.3-1
		s-0.1-0.7-0.1-1c-0.6,0.7-1.3,1.2-2.1,1.7c-0.9,0.6-2,0.8-3.1,0.8c-1.5,0-2.7-0.4-3.7-1.3s-1.5-2.2-1.5-3.8c0-2.1,0.8-3.7,2.3-4.6
		c0.9-0.5,2.1-0.9,3.8-1.1L244.9,253.6z M247.6,255.7c-0.3,0.2-0.6,0.3-0.8,0.4c-0.3,0.1-0.7,0.2-1.1,0.3l-1,0.2
		c-0.9,0.2-1.6,0.4-2,0.6c-0.7,0.4-1,1-1,1.9c0,0.8,0.2,1.3,0.6,1.7c0.4,0.3,0.9,0.5,1.5,0.5c0.9,0,1.8-0.3,2.6-0.9s1.2-1.6,1.2-3.1
		V255.7z"/>
	<path class="st1" d="M255.1,250.2V247h2.3v-4.8h4.2v4.8h2.7v3.2h-2.7v9.1c0,0.7,0.1,1.1,0.3,1.3c0.2,0.2,0.7,0.3,1.6,0.3
		c0.1,0,0.3,0,0.4,0s0.3,0,0.4,0v3.4l-2,0.1c-2,0.1-3.4-0.3-4.1-1.1c-0.5-0.5-0.7-1.3-0.7-2.4v-10.6L255.1,250.2L255.1,250.2z"/>
	<path class="st1" d="M271.4,244.8h-4.3v-4.2h4.3V244.8z M267.1,246.8h4.3V264h-4.3V246.8z"/>
	<path class="st1" d="M289.2,261.9c-1.4,1.8-3.5,2.7-6.3,2.7s-4.9-0.9-6.3-2.7c-1.4-1.8-2.1-4-2.1-6.5s0.7-4.6,2.1-6.5
		c1.4-1.8,3.5-2.7,6.3-2.7s4.9,0.9,6.3,2.7s2.1,4,2.1,6.5C291.3,258,290.6,260.2,289.2,261.9z M285.8,259.5c0.7-0.9,1-2.3,1-4
		c0-1.7-0.3-3.1-1-4s-1.6-1.4-2.9-1.4s-2.2,0.5-2.9,1.4c-0.7,0.9-1,2.3-1,4c0,1.7,0.3,3.1,1,4s1.6,1.4,2.9,1.4
		S285.1,260.4,285.8,259.5z"/>
	<path class="st1" d="M307.5,247.8c1.1,0.9,1.6,2.5,1.6,4.6V264h-4.4v-10.5c0-0.9-0.1-1.6-0.3-2.1c-0.4-0.9-1.2-1.3-2.4-1.3
		c-1.4,0-2.4,0.6-3,1.9c-0.3,0.7-0.4,1.6-0.4,2.6v9.3h-4.3v-17.2h4.1v2.5c0.5-0.9,1.1-1.5,1.6-1.9c0.9-0.7,2-1,3.3-1
		C305.1,246.4,306.5,246.9,307.5,247.8z"/>
	<path class="st1" d="M329.3,257.5v-4.1h6.2v-6.5h4v6.5h6.2v4.1h-6.2v6.5h-4v-6.5H329.3z"/>
	<path class="st1" d="M370.7,248.9c1.2,1.6,1.8,3.7,1.8,6.3c0,2.7-0.6,4.9-1.8,6.7c-1.2,1.8-2.9,2.6-5.1,2.6c-1.4,0-2.5-0.3-3.3-0.9
		c-0.5-0.3-1-0.9-1.6-1.8v2.2h-4.2v-23.3h4.3v8.3c0.5-0.8,1.1-1.4,1.8-1.8c0.8-0.5,1.8-0.8,3-0.8
		C367.8,246.4,369.5,247.3,370.7,248.9z M367.1,259.4c0.6-0.9,0.9-2.2,0.9-3.7c0-1.2-0.2-2.2-0.5-3c-0.6-1.5-1.6-2.3-3.2-2.3
		s-2.6,0.7-3.2,2.2c-0.3,0.8-0.5,1.8-0.5,3.1c0,1.5,0.3,2.7,0.9,3.7s1.6,1.5,2.9,1.5C365.7,260.8,366.5,260.3,367.1,259.4z"/>
	<path class="st1" d="M389.2,261.9c-1.4,1.8-3.5,2.7-6.3,2.7s-4.9-0.9-6.3-2.7c-1.4-1.8-2.1-4-2.1-6.5s0.7-4.6,2.1-6.5
		c1.4-1.8,3.5-2.7,6.3-2.7s4.9,0.9,6.3,2.7s2.1,4,2.1,6.5C391.3,258,390.6,260.2,389.2,261.9z M385.8,259.5c0.7-0.9,1-2.3,1-4
		c0-1.7-0.3-3.1-1-4s-1.6-1.4-2.9-1.4s-2.2,0.5-2.9,1.4c-0.7,0.9-1,2.3-1,4c0,1.7,0.3,3.1,1,4s1.6,1.4,2.9,1.4
		C384.1,260.9,385.1,260.4,385.8,259.5z"/>
	<path class="st1" d="M408,261.9c-1.4,1.8-3.5,2.7-6.3,2.7s-4.9-0.9-6.3-2.7c-1.4-1.8-2.1-4-2.1-6.5s0.7-4.6,2.1-6.5
		c1.4-1.8,3.5-2.7,6.3-2.7s4.9,0.9,6.3,2.7s2.1,4,2.1,6.5C410.1,258,409.4,260.2,408,261.9z M404.6,259.5c0.7-0.9,1-2.3,1-4
		c0-1.7-0.3-3.1-1-4s-1.6-1.4-2.9-1.4s-2.2,0.5-2.9,1.4c-0.7,0.9-1,2.3-1,4c0,1.7,0.3,3.1,1,4s1.6,1.4,2.9,1.4
		C402.9,260.9,403.9,260.4,404.6,259.5z"/>
	<path class="st1" d="M413.1,240.8h4.2v12.6l5.4-6.5h5.3l-5.9,6.4l6.1,10.7H423l-4-7.4l-1.8,1.9v5.4H413v-23.1H413.1z"/>
	<path class="st1" d="M433.5,258.6c0.1,0.8,0.3,1.4,0.6,1.7c0.5,0.6,1.5,0.9,3,0.9c0.8,0,1.5-0.1,2-0.4s0.7-0.7,0.7-1.2
		s-0.2-0.9-0.6-1.2c-0.4-0.3-1.9-0.7-4.5-1.4c-1.9-0.5-3.2-1.1-3.9-1.8c-0.8-0.7-1.1-1.7-1.1-3.1c0-1.6,0.6-3,1.8-4.1
		c1.2-1.1,2.9-1.7,5-1.7c2,0,3.7,0.4,5,1.3c1.3,0.9,2,2.3,2.2,4.5h-4.3c-0.1-0.6-0.2-1-0.5-1.4c-0.5-0.6-1.3-0.9-2.4-0.9
		c-0.9,0-1.6,0.2-2,0.5s-0.6,0.7-0.6,1.1c0,0.5,0.2,0.9,0.6,1.1c0.4,0.2,1.9,0.7,4.5,1.2c1.7,0.4,3,1.1,3.8,1.9
		c0.8,0.9,1.3,1.9,1.3,3.2c0,1.7-0.6,3.1-1.8,4.2c-1.2,1.1-3.1,1.6-5.6,1.6c-2.6,0-4.5-0.6-5.7-1.7s-1.8-2.6-1.8-4.4L433.5,258.6
		L433.5,258.6z"/>
	<path class="st1" d="M480.6,257.5v-4.1h6.2v-6.5h4v6.5h6.2v4.1h-6.2v6.5h-4v-6.5H480.6z"/>
	<path class="st1" d="M511.4,258.6c0.1,0.8,0.3,1.4,0.6,1.7c0.5,0.6,1.5,0.9,3,0.9c0.8,0,1.5-0.1,2-0.4s0.7-0.7,0.7-1.2
		s-0.2-0.9-0.6-1.2c-0.4-0.3-1.9-0.7-4.5-1.4c-1.9-0.5-3.2-1.1-3.9-1.8c-0.8-0.7-1.1-1.7-1.1-3.1c0-1.6,0.6-3,1.8-4.1
		c1.2-1.1,2.9-1.7,5-1.7c2,0,3.7,0.4,5,1.3c1.3,0.9,2,2.3,2.2,4.5h-4.3c-0.1-0.6-0.2-1-0.5-1.4c-0.5-0.6-1.3-0.9-2.4-0.9
		c-0.9,0-1.6,0.2-2,0.5s-0.6,0.7-0.6,1.1c0,0.5,0.2,0.9,0.6,1.1c0.4,0.2,1.9,0.7,4.5,1.2c1.7,0.4,3,1.1,3.8,1.9
		c0.8,0.9,1.3,1.9,1.3,3.2c0,1.7-0.6,3.1-1.8,4.2s-3.1,1.6-5.6,1.6c-2.6,0-4.5-0.6-5.7-1.7s-1.8-2.6-1.8-4.4L511.4,258.6
		L511.4,258.6z"/>
	<path class="st1" d="M529.4,246.8v10.4c0,1,0.1,1.7,0.3,2.2c0.4,0.9,1.2,1.3,2.3,1.3c1.5,0,2.5-0.6,3-1.9c0.3-0.7,0.4-1.6,0.4-2.7
		v-9.4h4.3v17.2h-4.2v-2.4c0,0.1-0.1,0.2-0.3,0.5s-0.3,0.5-0.6,0.7c-0.7,0.6-1.3,1.1-1.9,1.3c-0.6,0.2-1.4,0.3-2.2,0.3
		c-2.4,0-4-0.9-4.9-2.8c-0.5-1-0.7-2.5-0.7-4.5v-10.4h4.5V246.8z"/>
	<path class="st1" d="M557.7,248.7c1.3,1.5,2,3.7,2,6.5c0,3-0.7,5.3-2,6.9s-3,2.4-5,2.4c-1.3,0-2.4-0.3-3.3-1
		c-0.5-0.4-0.9-0.9-1.4-1.7v9h-4.2v-24h4.1v2.5c0.5-0.7,1-1.3,1.5-1.8c1-0.8,2.1-1.2,3.4-1.2C554.7,246.4,556.4,247.2,557.7,248.7z
		 M554.4,251.9c-0.6-1-1.5-1.5-2.8-1.5c-1.6,0-2.6,0.8-3.2,2.3c-0.3,0.8-0.5,1.9-0.5,3.1c0,2,0.5,3.4,1.5,4.2
		c0.6,0.5,1.3,0.7,2.2,0.7c1.2,0,2.1-0.5,2.8-1.5s0.9-2.3,0.9-3.9C555.3,254.1,555,252.9,554.4,251.9z"/>
	<path class="st1" d="M576.5,248.7c1.3,1.5,2,3.7,2,6.5c0,3-0.7,5.3-2,6.9s-3,2.4-5,2.4c-1.3,0-2.4-0.3-3.3-1
		c-0.5-0.4-0.9-0.9-1.4-1.7v9h-4.2v-24h4.1v2.5c0.5-0.7,1-1.3,1.5-1.8c1-0.8,2.1-1.2,3.4-1.2C573.5,246.4,575.2,247.2,576.5,248.7z
		 M573.2,251.9c-0.6-1-1.5-1.5-2.8-1.5c-1.6,0-2.6,0.8-3.2,2.3c-0.3,0.8-0.5,1.9-0.5,3.1c0,2,0.5,3.4,1.5,4.2
		c0.6,0.5,1.3,0.7,2.2,0.7c1.2,0,2.1-0.5,2.8-1.5s0.9-2.3,0.9-3.9C574.1,254.1,573.8,252.9,573.2,251.9z"/>
	<path class="st1" d="M585.9,264.1h-4.3v-23.3h4.3V264.1z"/>
	<path class="st1" d="M594.5,244.8h-4.3v-4.2h4.3V244.8z M590.1,246.8h4.3V264h-4.3V246.8z"/>
	<path class="st1" d="M609.3,247.2c1.1,0.5,2.1,1.4,2.8,2.6c0.7,1,1.1,2.2,1.3,3.6c0.1,0.8,0.2,1.9,0.1,3.4h-11.9
		c0.1,1.7,0.6,2.9,1.7,3.6c0.7,0.4,1.4,0.6,2.4,0.6s1.8-0.3,2.4-0.8c0.3-0.3,0.6-0.7,0.9-1.2h4.4c-0.1,1-0.6,2.1-1.6,3.1
		c-1.5,1.7-3.5,2.5-6.2,2.5c-2.2,0-4.1-0.7-5.8-2.1s-2.5-3.7-2.5-6.9c0-3,0.8-5.3,2.3-6.9c1.5-1.6,3.5-2.4,5.9-2.4
		C606.9,246.4,608.1,246.6,609.3,247.2z M602.9,251.1c-0.6,0.7-1,1.5-1.1,2.7h7.4c-0.1-1.2-0.5-2.1-1.1-2.7
		c-0.7-0.6-1.5-0.9-2.5-0.9C604.3,250.1,603.5,250.4,602.9,251.1z"/>
	<path class="st1" d="M619,258.6c0.1,0.8,0.3,1.4,0.6,1.7c0.5,0.6,1.5,0.9,3,0.9c0.8,0,1.5-0.1,2-0.4s0.7-0.7,0.7-1.2
		s-0.2-0.9-0.6-1.2c-0.4-0.3-1.9-0.7-4.5-1.4c-1.9-0.5-3.2-1.1-3.9-1.8c-0.8-0.7-1.1-1.7-1.1-3.1c0-1.6,0.6-3,1.8-4.1s2.9-1.7,5-1.7
		c2,0,3.7,0.4,5,1.3c1.3,0.9,2,2.3,2.2,4.5h-4.3c-0.1-0.6-0.2-1-0.5-1.4c-0.5-0.6-1.3-0.9-2.4-0.9c-0.9,0-1.6,0.2-2,0.5
		s-0.6,0.7-0.6,1.1c0,0.5,0.2,0.9,0.6,1.1c0.4,0.2,1.9,0.7,4.5,1.2c1.7,0.4,3,1.1,3.8,1.9c0.8,0.9,1.3,1.9,1.3,3.2
		c0,1.7-0.6,3.1-1.8,4.2s-3.1,1.6-5.6,1.6c-2.6,0-4.5-0.6-5.7-1.7s-1.8-2.6-1.8-4.4L619,258.6L619,258.6z"/>
</g>
<g>
	<path class="st3" d="M394.5,223.1c0,1.4-1.8,1.8-2.8,1.6c-0.1,0-0.2-0.2-0.2-0.3v-1.7c0-0.1,0-0.1,0.1-0.2c0.1,0,0.1-0.1,0.2-0.1
		c1,0.2,2.8-0.3,2.8-1.6v2.3H394.5z M395.4,218c0-0.4-0.2-0.8-0.6-1c-2.1-1-8.9-4.2-11.7-5.5c-0.2-0.1-0.5-0.1-0.7,0
		s-0.4,0.4-0.4,0.7v1.3c0.4,0.3,1.3-0.4,1.3-0.4c6.1,2.9,9,4.3,10.3,4.9c0.3,0.1,0.4,0.4,0.3,0.7c-0.2,0.7-0.8,1.3-1.6,1.5
		c-0.9,0.2-1.8,0.1-2.3-0.1c-0.1,0-11.3-5.3-12.3-5.8c-0.2-0.1-0.5-0.1-0.8,0c-0.2,0.1-0.4,0.4-0.4,0.7v19.3c0,0.4,0.2,0.8,0.6,1
		l12.7,6c1.3,0.6,5.4,0.1,5.4-2.7V218H395.4z"/>
	<path class="st3" d="M401.1,219.6c0,1.4-1.8,1.8-2.8,1.6c-0.1,0-0.2-0.2-0.2-0.3v-1.7c0-0.1,0-0.1,0.1-0.2c0.1,0,0.1-0.1,0.2-0.1
		c1,0.2,2.8-0.3,2.8-1.6v2.3H401.1z M402,214.4c0-0.4-0.2-0.8-0.6-1c-2.1-1-8.9-4.2-11.7-5.5c-0.2-0.1-0.5-0.1-0.8,0
		c-0.2,0.1-0.4,0.4-0.4,0.7v1.3c0.4,0.2,1.3-0.4,1.3-0.4c6.1,2.9,9,4.3,10.3,4.9c0.3,0.1,0.4,0.4,0.3,0.7c-0.2,0.7-0.8,1.3-1.6,1.5
		c-0.7,0.1-1.3,0.1-1.9,0c-0.1,0-0.2,0-0.3,0.1c-0.1,0.1-0.1,0.2-0.1,0.3v20.8c1.5,0.5,5.3-0.1,5.3-2.7v-20.7H402z"/>
	<path class="st3" d="M407.7,216c0,1.4-1.8,1.8-2.8,1.6c-0.1,0-0.2-0.2-0.2-0.3v-1.7c0-0.1,0-0.1,0.1-0.2c0.1,0,0.1-0.1,0.2-0.1
		c1,0.2,2.8-0.3,2.8-1.6v2.3H407.7z M408.6,210.8c0-0.4-0.2-0.8-0.6-1c-2.1-1-8.9-4.2-11.7-5.5c-0.2-0.1-0.5-0.1-0.7,0
		s-0.4,0.4-0.4,0.7v1.3c0.4,0.2,1.3-0.4,1.3-0.4c6.1,2.9,9,4.3,10.3,4.9c0.3,0.1,0.4,0.4,0.3,0.7c-0.2,0.7-0.8,1.3-1.6,1.5
		c-0.7,0.1-1.3,0.1-1.9,0c-0.1,0-0.2,0-0.3,0.1c-0.1,0.1-0.1,0.2-0.1,0.3v20.8c1.5,0.5,5.3-0.1,5.3-2.7v-20.7H408.6z"/>
</g>
<g>
	<path class="st4" d="M225.5,235l-2.4,1.4c0.6,0.7,1.3,1.2,2.2,1.4L225.5,235z M226.5,235.7l-0.2,2.1c0.4,0,0.8-0.1,1.2-0.3
		L226.5,235.7z M223.7,230.6c1.9-1.3,4.5-0.9,5.9,1c1.3,1.9,0.9,4.5-1,5.9c-1.9,1.3-4.5,0.9-5.9-1
		C221.3,234.5,221.8,231.9,223.7,230.6 M221.6,237.2c1.7,2.5,5.2,3.1,7.6,1.3c2.5-1.7,3.1-5.2,1.3-7.6c-1.7-2.5-5.2-3.1-7.6-1.4
		C220.5,231.3,219.9,234.7,221.6,237.2 M224.4,234.4l-2-0.2c0,0.4,0.1,0.8,0.3,1.2L224.4,234.4z M226.7,234.4
		c0.1,0.2,0.3,0.2,0.4,0.1c0.2-0.1,0.2-0.3,0.1-0.4c-0.1-0.2-0.3-0.2-0.4-0.1C226.6,234.1,226.6,234.3,226.7,234.4 M222.4,233.2
		l2.8,0.2l-1.4-2.4C223.1,231.5,222.6,232.3,222.4,233.2 M225.6,234.2c-0.1-0.2-0.3-0.2-0.4-0.1c-0.2,0.1-0.2,0.3-0.1,0.4
		c0.1,0.2,0.3,0.2,0.4,0.1C225.6,234.6,225.7,234.4,225.6,234.2 M226.1,234.6c-0.2,0.1-0.2,0.3-0.1,0.4c0.1,0.2,0.3,0.2,0.4,0.1
		c0.2-0.1,0.2-0.3,0.1-0.4C226.4,234.6,226.2,234.5,226.1,234.6 M225.4,233.1c-0.2,0.1-0.2,0.3-0.1,0.4c0.1,0.2,0.3,0.2,0.4,0.1
		c0.2-0.1,0.2-0.3,0.1-0.4C225.8,233.1,225.6,233,225.4,233.1 M229.9,234.9l-2.8-0.2l1.4,2.4C229.2,236.5,229.7,235.7,229.9,234.9
		 M227.9,233.6l2.1,0.2c0-0.4-0.1-0.8-0.3-1.2L227.9,233.6z M225.8,232.3l0.2-2c-0.4,0-0.8,0.1-1.2,0.3L225.8,232.3z M226.8,233.1
		l2.4-1.4c-0.6-0.7-1.4-1.2-2.2-1.4L226.8,233.1c-0.1,0-0.2,0-0.3,0c-0.2,0.1-0.2,0.3-0.1,0.4c0.1,0.2,0.3,0.2,0.4,0.1
		s0.2-0.3,0.1-0.4C226.9,233.1,226.8,233.1,226.8,233.1"/>
	<path class="st4" d="M179.2,235l-2.4,1.4c0.6,0.7,1.3,1.2,2.2,1.4L179.2,235z M180.2,235.7l-0.2,2.1c0.4,0,0.8-0.1,1.2-0.3
		L180.2,235.7z M177.4,230.6c1.9-1.3,4.5-0.9,5.9,1c1.3,1.9,0.9,4.5-1,5.9c-1.9,1.3-4.5,0.9-5.9-1
		C175.1,234.5,175.5,231.9,177.4,230.6 M175.4,237.2c1.7,2.5,5.2,3.1,7.6,1.3c2.5-1.7,3.1-5.2,1.3-7.6c-1.7-2.5-5.2-3.1-7.6-1.4
		C174.2,231.3,173.6,234.7,175.4,237.2 M178.1,234.4l-2-0.2c0,0.4,0.1,0.8,0.3,1.2L178.1,234.4z M180.4,234.4
		c0.1,0.2,0.3,0.2,0.4,0.1c0.2-0.1,0.2-0.3,0.1-0.4c-0.1-0.2-0.3-0.2-0.4-0.1C180.4,234.1,180.3,234.3,180.4,234.4 M176.1,233.2
		l2.8,0.2l-1.4-2.4C176.8,231.5,176.3,232.3,176.1,233.2 M179.3,234.2c-0.1-0.2-0.3-0.2-0.4-0.1c-0.2,0.1-0.2,0.3-0.1,0.4
		c0.1,0.2,0.3,0.2,0.4,0.1C179.3,234.6,179.4,234.4,179.3,234.2 M179.8,234.6c-0.2,0.1-0.2,0.3-0.1,0.4c0.1,0.2,0.3,0.2,0.4,0.1
		c0.2-0.1,0.2-0.3,0.1-0.4C180.1,234.6,179.9,234.5,179.8,234.6 M179.1,233.1c-0.2,0.1-0.2,0.3-0.1,0.4c0.1,0.2,0.3,0.2,0.4,0.1
		c0.2-0.1,0.2-0.3,0.1-0.4C179.5,233.1,179.3,233,179.1,233.1 M183.6,234.9l-2.8-0.2l1.4,2.4C182.9,236.5,183.4,235.7,183.6,234.9
		 M181.6,233.6l2.1,0.2c0-0.4-0.1-0.8-0.3-1.2L181.6,233.6z M179.5,232.3l0.2-2c-0.4,0-0.8,0.1-1.2,0.3L179.5,232.3z M180.5,233.1
		l2.4-1.4c-0.6-0.7-1.3-1.2-2.2-1.4L180.5,233.1c-0.1,0-0.2,0-0.3,0c-0.2,0.1-0.2,0.3-0.1,0.4c0.1,0.2,0.3,0.2,0.4,0.1
		c0.2-0.1,0.2-0.3,0.1-0.4C180.6,233.1,180.5,233.1,180.5,233.1"/>
	<path class="st4" d="M180.4,222.9c1.4-1.2,4.3-3.7,8-4.7c2.6-0.7,5.4-0.9,7.6-0.9l0.1,6C190.5,223.2,180.4,222.9,180.4,222.9
		 M210.9,221.6c-0.5,0.6-0.6,1.7,0.1,2.6c-4.6-0.3-8.4-0.5-11.4-0.7l-1.8-6.1c1.6,0.1,2.7,0.2,2.7,0.2
		C204.5,218.1,208.7,220.2,210.9,221.6 M165.5,233.1c0,0,3.2,1.8,8.3,2.4c0,0-1.7-7.1,6.1-7.7c0,0,6.1-0.1,6.2,6.6l-0.2,1.8
		c0,0,15.2,0.9,34.3,0c0,0-1.9-7.9,5.9-8.4c0,0,7.1,0.2,5.9,7.7c0,0,1.3,0.1,3.2-1.4c0,0,0.5-1.5,0.2-3.5c0,0-0.2-0.7-0.7-1.3
		c0,0-1.2-0.3-2.1-0.1c0,0-0.7-1-1.6-1.7c0,0-0.7-0.4,0.1-0.5c0,0,1.3-0.5,2.6,0.3c0,0-0.7-2.3-17.1-4c0,0-1.1-0.1-2.8-1
		c-2.5-1.4-5.2-3.1-8-4c-5.5-1.9-11.5-1.8-17.2-1.1c-8.8,1.1-8.4,4.9-21.3,6.3c0,0-0.5,0.7-0.7,1.2c0,0,0.8-0.7,1.2-0.6
		c0.3,0,0.9,0.6,1.1,1c0,0-1.3,1.2-2.4,3.1l-0.9,0.1C165.7,228,164.2,230.6,165.5,233.1"/>
</g>
<g>
	<polygon class="st5" points="578,240.8 550.9,240.8 550.9,210.1 578,210.1 578,219.9 576.7,219.9 576.7,211.4 552.2,211.4 
		552.2,239.5 576.7,239.5 576.7,230.4 578,230.4 	"/>
	<rect x="549.6" y="213.4" class="st5" width="4" height="1.3"/>
	<rect x="549.6" y="216.5" class="st5" width="4" height="1.3"/>
	<rect x="549.6" y="219.6" class="st5" width="4" height="1.3"/>
	<rect x="549.6" y="222.7" class="st5" width="4" height="1.3"/>
	<rect x="549.6" y="225.8" class="st5" width="4" height="1.3"/>
	<rect x="549.6" y="228.9" class="st5" width="4" height="1.3"/>
	<rect x="549.6" y="232" class="st5" width="4" height="1.3"/>
	<rect x="549.6" y="235.1" class="st5" width="4" height="1.3"/>
	<path class="st5" d="M570.7,229.6l-0.9,2.8l2.8-0.9l12.5-12.5c0.5-0.5,0.5-1.4,0-1.9s-1.4-0.5-1.9,0L570.7,229.6z M567.7,234.5
		l1.8-5.6l12.8-12.8c1.1-1.1,2.8-1.1,3.8,0c1.1,1.1,1.1,2.8,0,3.8l-12.8,12.8L567.7,234.5z"/>
	
		<rect x="582.6" y="217.1" transform="matrix(0.717 -0.6971 0.6971 0.717 12.2571 468.6418)" class="st5" width="1.3" height="4.3"/>
</g>
</svg>
